<?xml version="1.0" encoding="UTF-8"?>
<svg xmlns="http://www.w3.org/2000/svg" width="170" height="35" viewBox="0 0 170 35" fill="none" aria-hidden="true">
  <g clip-path="url(#clip0_1255_15908)">
    <g>
      <g>
        <path d="M35 0H0V35H35V0Z" fill="url(#paint0_linear_1255_15908)"></path>
        <path d="M33.9578 17.7043C33.9578 25.013 34.2974 32.4915 34.2974 32.4915C34.3121 32.6634 34.2916 32.8364 34.2371 33.0001C34.1826 33.1638 34.0952 33.3146 33.9803 33.4432C33.8653 33.5719 33.7253 33.6757 33.5688 33.7482C33.4124 33.8208 33.2427 33.8606 33.0702 33.8653H2.73176C2.05259 33.8653 1.58953 33.2633 1.50463 32.4915C0.883785 27.1326 0.592535 21.7406 0.632528 16.346C0.632528 6.58301 1.54322 1.99095 1.54322 1.99095C1.61268 1.1883 2.05259 0.617188 2.73176 0.617188H33.0316C33.3764 0.637098 33.6991 0.792894 33.9292 1.05042C34.1592 1.30794 34.2777 1.64617 34.2588 1.99095C34.2588 1.99095 33.9578 10.3956 33.9578 17.7043Z" fill="url(#paint1_linear_1255_15908)"></path>
        <path d="M27.1813 9.45426C25.0126 10.72 24.3566 10.8203 22.0104 12.2326L22.1185 11.9702C23.0659 11.016 23.9308 9.98332 24.7039 8.88314C22.1622 8.98738 19.6317 9.27888 17.1328 9.75525L17.2486 9.50828C19.7331 8.44132 22.3414 7.68943 25.0126 7.27013C24.5419 6.60641 20.7061 4.53033 19.7491 4.12901L19.8572 3.85889C22.8268 4.25371 25.7019 5.17635 28.3467 6.58325C29.2502 6.36771 30.1735 6.24615 31.1019 6.22052C31.1019 6.22052 30.909 6.99229 29.4658 8.00332C29.8285 8.9526 28.9718 14.2315 28.2695 15.6362C28.1923 13.4521 27.9994 10.6659 27.1813 9.45426Z" fill="url(#paint2_linear_1255_15908)"></path>
        <path d="M11.3669 28.3781L11.4749 28.1312C10.2968 27.7924 9.19764 27.2232 8.24119 26.4564C8.53287 25.6537 8.92995 24.8933 9.422 24.1951L9.53777 23.9482C8.54989 24.1025 7.64692 24.4652 6.79797 24.6273C6.17341 23.2453 5.7448 21.7828 5.52454 20.2822L5.40105 20.5292C5.1775 21.9948 5.1775 23.4859 5.40105 24.9515C4.75679 25.0702 4.12022 25.2274 3.49477 25.4222L3.38672 25.6615C4.24882 26.211 5.146 26.7034 6.0725 27.1356C6.55585 28.2285 7.25097 29.2148 8.1177 30.0375L8.23347 29.7905C8.00447 29.1607 7.90217 28.4919 7.93247 27.8225C9.04608 28.1656 10.2019 28.3526 11.3669 28.3781Z" fill="url(#paint3_linear_1255_15908)"></path>
        <path d="M14.556 10.8047C14.2253 11.4157 13.9465 12.0534 13.7224 12.711H13.6375C15.6825 13.0046 17.6677 13.622 19.5185 14.5401L19.4027 14.787C17.6581 14.4211 15.8703 14.3041 14.0929 14.4397C13.6636 14.4464 13.2384 14.5247 12.8349 14.6713C12.321 16.0431 11.9561 17.4662 11.7467 18.916L11.6309 19.163C11.1216 17.9282 10.3807 15.4739 10.3807 15.4739C8.97602 16.2457 5.75 19.2788 5.75 19.2788C6.6523 17.3556 7.87058 15.5974 9.35419 14.077C8.72905 13.4519 7.10061 13.1277 5.90436 13.0814L6.0124 12.8422C7.10749 12.6181 8.2211 12.4966 9.33875 12.4794C9.99424 12.4425 10.6513 12.4425 11.3068 12.4794C12.2742 11.7208 13.3768 11.1525 14.556 10.8047Z" fill="url(#paint4_linear_1255_15908)"></path>
        <path d="M17.9896 26.1556C17.4185 26.9274 16.94 27.5294 16.3149 28.2317C15.3645 28.3939 14.3991 28.4508 13.4362 28.4015L13.3281 28.6407C13.9391 28.9544 14.5912 29.1804 15.2653 29.3122C14.7029 29.7612 14.1069 30.1663 13.4825 30.5239L13.3744 30.7708C14.6327 30.4863 15.8455 30.0292 16.9786 29.4125C17.4665 29.436 17.9554 29.4075 18.4373 29.3276L18.553 29.0807C18.4836 28.8337 18.2675 28.6793 18.198 28.3089C19.1073 27.5947 19.9685 26.8213 20.7758 25.9935L20.8915 25.7466C20.0016 26.4226 19.0626 27.0314 18.0823 27.568C18.0437 27.0972 18.0128 26.6959 17.9896 26.1556Z" fill="url(#paint5_linear_1255_15908)"></path>
        <path d="M27.2908 9.20729C25.1375 10.473 24.4738 10.581 22.1199 11.9857C23.118 10.9508 24.0195 9.82711 24.8134 8.62846C22.2746 8.73698 19.7469 9.02844 17.25 9.50056C19.7534 8.31763 22.4074 7.48405 25.1375 7.02316C24.6976 6.36716 20.8388 4.28336 19.8586 3.85889C22.85 4.10927 25.762 4.95137 28.4253 6.33628C29.3322 6.12755 30.2579 6.01119 31.1883 5.98899C30.8602 6.74988 30.2796 7.37418 29.5444 7.75635C29.8994 8.71335 29.0427 13.9923 28.3404 15.3892C28.3095 13.2051 28.1166 10.419 27.2908 9.20729Z" fill="white"></path>
        <path d="M11.4768 28.1314C10.3231 27.7207 9.27055 27.0681 8.38972 26.2174C8.66652 25.4044 9.05344 24.6331 9.53966 23.9252C8.52864 24.0796 7.78001 24.1953 6.91563 24.3574H6.9465C6.26111 23.0771 5.79174 21.6924 5.5573 20.2593C5.33752 21.7278 5.33752 23.2208 5.5573 24.6893C4.86617 24.8659 4.19208 25.1035 3.54297 25.3993C4.38887 25.9516 5.26776 26.4516 6.17472 26.8965C6.6661 27.9846 7.3632 28.9673 8.22764 29.7907C8.01142 29.0761 7.9483 28.324 8.04242 27.5834C9.15722 27.9203 10.3125 28.1046 11.4768 28.1314Z" fill="white"></path>
        <path d="M14.7117 10.5889C14.3012 11.1601 13.9786 11.7897 13.7547 12.4566C15.7917 12.7729 17.7489 13.4777 19.5199 14.5326C17.7724 14.1679 15.982 14.0535 14.2024 14.1931C13.7764 14.2017 13.3545 14.2773 12.9521 14.4169C12.3923 15.8671 11.9887 17.3728 11.7481 18.9086C11.2387 17.6815 10.4978 15.2195 10.4978 15.2195C9.09321 15.9913 5.86719 19.0321 5.86719 19.0321C6.75896 17.1048 7.97551 15.3453 9.46366 13.8303C8.83852 13.1975 7.20236 12.881 6.00611 12.8347C7.12174 12.4813 8.27906 12.2763 9.44822 12.225C10.6676 12.225 11.4085 12.225 11.4085 12.225C12.3982 11.4789 13.5185 10.9241 14.7117 10.5889Z" fill="white"></path>
        <path d="M18.099 25.9163C17.5356 26.688 17.0494 27.2823 16.4243 27.9846C15.4544 28.2688 14.4481 28.4093 13.4375 28.4014C14.0531 28.7106 14.7071 28.9364 15.3824 29.0728C14.7946 29.6128 14.1591 30.0984 13.4838 30.5238C14.7432 30.2468 15.9568 29.7921 17.088 29.1732C17.5787 29.1986 18.0707 29.1676 18.5544 29.0805C18.4522 28.7571 18.3723 28.427 18.3151 28.0927C19.2281 27.3829 20.0895 26.6092 20.8928 25.7773C20.0426 26.3708 19.1412 26.8873 18.1994 27.3209C18.153 26.8578 18.1299 26.4488 18.099 25.9163Z" fill="white"></path>
        <path d="M43.7811 5.35591C43.8737 6.63705 43.9431 9.86307 43.9431 11.0439C43.9431 12.2247 43.9431 15.7517 43.7656 17.3184V17.4419H49.3919C52.1625 17.4419 55.1262 16.5621 55.1262 14.0924C55.1262 12.5488 53.9994 11.3912 51.9001 10.766C53.4437 10.357 54.4933 9.28424 54.4933 8.05712C54.4933 6.04279 52.178 5.27873 50.0016 5.23242H43.7656L43.7811 5.35591ZM48.1647 6.59846C50.5341 6.59846 51.4139 7.0924 51.4139 8.38898C51.4134 8.7077 51.3015 9.0162 51.0975 9.26109C50.7683 9.56636 50.3749 9.79411 49.9462 9.92765C49.5176 10.0612 49.0645 10.0971 48.6201 10.0329H48.5661L47.9101 11.7462H48.5738C49.1261 11.6915 49.6836 11.7608 50.2056 11.9491C50.7277 12.1374 51.2012 12.4398 51.5914 12.8344C51.8528 13.1425 51.9952 13.534 51.9928 13.938C51.9928 15.2964 50.8119 15.9832 48.4735 15.9832C48.0798 15.9832 47.447 15.9832 47.0457 15.9832C46.9608 14.1927 46.9531 11.7616 46.9531 11.0439C46.9531 10.1949 46.9531 8.28865 47.0457 6.67564C47.4158 6.61775 47.7902 6.59192 48.1647 6.59846Z" fill="#1D1D1B"></path>
        <path d="M68.2392 5.23242H65.484L65.5997 8.31952C65.6538 9.86307 65.7001 11.4066 65.8004 12.9502C65.4904 12.2628 65.0992 11.615 64.635 11.0207C64.635 10.9744 61.7486 6.55216 60.7761 5.30188H57.5192V5.41765C57.6119 6.69879 57.6736 9.9171 57.6736 11.1056C57.6736 12.2942 57.6736 15.8212 57.4961 17.3802V17.5114H60.3439V17.3956C60.1973 14.3316 60.1973 11.3294 60.1973 8.41985C60.3479 8.90104 60.5803 9.3527 60.8842 9.75502C60.9305 9.8322 65.8235 16.9788 66.0705 17.4033V17.4496H68.3858V17.3184C68.2161 15.7749 68.2083 12.1244 68.2083 11.0439C68.2083 9.9634 68.2778 6.63705 68.3627 5.35591V5.24014L68.2392 5.23242Z" fill="#1D1D1B"></path>
        <path d="M71.5506 5.3485C71.6432 6.63737 71.7127 9.85567 71.7127 11.0365C71.7127 12.2173 71.7127 15.7443 71.5352 17.311V17.4345H74.9387V17.311C74.8229 16.1997 74.7766 14.0541 74.7612 12.3948H75.3863H75.8648C80.3411 12.3948 82.5175 11.1986 82.5175 8.72116C82.5175 5.88874 79.469 5.23274 76.9144 5.17871H71.5429L71.5506 5.3485ZM75.7182 6.69911C77.308 6.69911 78.4271 7.0001 78.9596 7.66383C79.211 7.9786 79.3424 8.37251 79.3301 8.77518C79.3301 10.5425 77.3466 10.913 75.6873 10.913H75.0159H74.7457C74.7457 10.504 74.7457 9.97915 74.7457 9.36945C74.7457 8.59768 74.7457 7.6947 74.7457 6.84575C75.065 6.76869 75.3904 6.71963 75.7182 6.69911Z" fill="#1D1D1B"></path>
        <path d="M88.9764 5.3485C89.069 6.63737 89.1384 9.85567 89.1384 11.0365C89.1384 12.2173 89.1384 15.7443 88.9609 17.311V17.4345H92.3645V17.311C92.2487 16.1997 92.2024 14.0541 92.187 12.3948H92.8121H93.2906C97.7669 12.3948 99.9433 11.1986 99.9433 8.72116C99.9433 5.88874 96.8562 5.23274 94.3325 5.17871H88.9995L88.9764 5.3485ZM93.144 6.69911C94.7338 6.69911 95.8529 7.0001 96.3931 7.66383C96.6394 7.98092 96.7677 8.37385 96.7559 8.77518C96.7559 10.5425 94.7801 10.913 93.1131 10.913H92.4416H92.1715C92.1715 10.504 92.1715 9.97143 92.1715 9.36945C92.1715 8.59768 92.1715 7.70242 92.1715 6.85346C92.4906 6.77423 92.816 6.72258 93.144 6.69911Z" fill="#1D1D1B"></path>
        <path d="M104.468 5.24034H104.414V5.30209C103.781 7.03858 99.7139 15.914 99.0811 17.28L99.0039 17.4498H101.875V17.3804C102.13 16.5468 102.454 15.5976 102.84 14.5788L105.248 14.5402H107.231H107.663C108.188 15.86 108.582 16.8556 108.751 17.3495V17.419H112.124L106.722 5.20947H104.406L104.468 5.24034ZM105.294 8.83682C105.572 9.40021 106.266 11.0441 107.046 12.9735H106.791H105.294H103.503C104.136 11.4145 104.761 10.0331 105.294 8.83682Z" fill="#1D1D1B"></path>
        <path d="M113.527 5.34817C113.62 6.62932 113.697 9.85534 113.697 11.0362C113.697 12.217 113.697 15.744 113.512 17.3107V17.4419H116.915V17.3107C116.745 15.7671 116.73 12.1166 116.73 11.0362C116.73 10.1949 116.73 8.28864 116.83 6.77596C117.108 6.77596 117.486 6.7065 117.749 6.69878C119.339 6.69878 120.458 7.00749 120.99 7.6635C121.242 7.97827 121.373 8.37219 121.361 8.77485C121.361 10.1795 120.033 10.8895 118.806 10.959C118.565 10.9835 118.322 10.9835 118.081 10.959L117.849 10.9127L117.996 11.1288C119.192 12.8961 120.998 15.9678 121.762 17.4265V17.4805H125.397L125.289 17.2953C125.166 17.0946 122.781 13.5984 121.77 12.1012L121.7 12.0163C123.553 11.4529 124.463 10.4033 124.463 8.80573C124.463 5.97331 121.376 5.3173 118.852 5.271H113.519L113.527 5.34817Z" fill="#1D1D1B"></path>
        <path d="M130.229 5.2251H126.972V5.34086C127.073 6.62973 127.135 9.85575 127.135 11.0366C127.135 12.2174 127.135 15.7367 126.957 17.3111V17.4346H130.353V17.3111C130.191 15.7675 130.175 12.1093 130.175 11.0366C130.175 9.84803 130.245 6.62973 130.337 5.34086V5.2251H130.229Z" fill="#1D1D1B"></path>
        <path d="M133.41 5.35591C133.502 6.63705 133.572 9.86307 133.572 11.0439C133.572 12.2247 133.572 15.7517 133.387 17.3184V17.4419H139.059C141.83 17.4419 144.794 16.5621 144.794 14.0924C144.794 12.5488 143.674 11.3912 141.568 10.766C143.111 10.357 144.161 9.28424 144.161 8.05712C144.161 6.04279 141.845 5.27873 139.669 5.23242H133.41V5.35591ZM137.794 6.59846C140.163 6.59846 141.05 7.0924 141.05 8.38898C141.053 8.7165 140.938 9.034 140.726 9.28424C140.398 9.59092 140.005 9.81959 139.576 9.95322C139.147 10.0868 138.693 10.122 138.249 10.056H138.187L137.539 11.7694H138.203C138.757 11.7123 139.318 11.7805 139.843 11.9688C140.368 12.1571 140.844 12.4608 141.236 12.8576C141.499 13.1649 141.644 13.5563 141.645 13.9612C141.645 15.3195 140.456 16.0064 138.125 16.0064C137.724 16.0064 137.084 16.0064 136.682 16.0064C136.605 14.2159 136.597 11.7848 136.597 11.067C136.597 10.2104 136.636 8.3118 136.698 6.69879C137.059 6.63371 137.426 6.60014 137.794 6.59846Z" fill="#1D1D1B"></path>
        <path d="M153.136 5.22511H150.82V5.28685C150.149 7.13911 145.842 16.5007 145.487 17.2725L145.41 17.4346H148.327V17.3651C148.574 16.5316 148.906 15.5901 149.284 14.5636L151.692 14.525H153.684H154.116C154.641 15.837 155.026 16.8403 155.196 17.3265V17.396H158.569L153.166 5.18652L153.136 5.22511ZM151.739 8.82158C152.009 9.3927 152.703 11.0289 153.491 12.9506H153.236H151.692H149.91C150.573 11.3993 151.198 10.0333 151.739 8.82158Z" fill="#1D1D1B"></path>
        <path d="M159.578 8.38905C159.578 10.5423 161.739 11.4067 163.638 12.1785C165.127 12.7804 166.648 13.3979 166.648 14.4166C166.669 14.6937 166.586 14.9688 166.416 15.1884C166.069 15.6051 165.336 15.7827 164.186 15.7286C162.843 15.6207 161.533 15.2566 160.327 14.6559L159.725 14.378V17.0484L160.111 17.1255L160.342 17.1796C161.467 17.4748 162.622 17.6405 163.784 17.6735C167.365 17.6735 169.511 16.2534 169.511 13.8841C169.511 11.6845 167.304 10.797 165.351 10.0252C163.908 9.44638 162.426 8.85983 162.426 7.91826C162.426 7.64814 162.426 6.83006 164.271 6.83006C165.483 6.8919 166.671 7.19356 167.767 7.7176L168.469 8.00316V5.28651L167.774 5.16303C166.775 4.94252 165.757 4.82102 164.734 4.80029C161.646 4.80029 159.578 6.24351 159.578 8.38905Z" fill="#1D1D1B"></path>
        <path d="M50.4425 30.0218H43.8516C43.9673 28.7793 43.9673 26.4485 43.9673 25.7539C43.9673 25.0593 43.921 22.7903 43.867 21.895H46.3676C46.3135 22.8134 46.2672 24.9821 46.2672 25.7539C46.2672 26.3019 46.2672 27.7065 46.3135 28.841H47.3323C48.3631 28.8443 49.3935 28.7954 50.4194 28.6944L50.4425 30.0218Z" fill="#1D1D1B"></path>
        <path d="M57.9976 21.8721V23.2227C57.1907 23.1293 56.3787 23.088 55.5665 23.0992H53.8917C53.8917 23.7552 53.8917 24.6427 53.8917 25.2524L56.6393 25.1753V26.5259L53.884 26.4796C53.884 27.2513 53.884 28.1389 53.884 28.7949H55.5665C56.4481 28.7995 57.3292 28.7557 58.206 28.6637V30.022H51.4375C51.5378 28.9107 51.5533 26.4796 51.5533 25.7541C51.5533 25.0286 51.507 22.7905 51.4452 21.8952L57.9976 21.8721Z" fill="#1D1D1B"></path>
        <path d="M64.0113 28.5559C63.5405 28.5559 62.8999 28.5559 62.4137 28.5559C61.9275 28.5559 61.3332 28.5559 60.8701 28.6022C60.6386 29.2351 60.4302 29.7908 60.3376 30.084H58.2461C58.7092 29.073 61.3332 23.2384 61.8194 21.9341H63.5096C63.8183 22.9142 66.5041 28.7643 67.1292 30.084H64.5901C64.4589 29.6518 64.2505 29.1193 64.0113 28.5559ZM61.3178 27.3442C61.6265 27.3442 62.0124 27.3442 62.4137 27.3442C62.815 27.3442 63.1855 27.3442 63.5405 27.3442L62.4291 24.643C62.2207 25.0752 61.7422 26.1788 61.3178 27.3134V27.3442Z" fill="#1D1D1B"></path>
        <path d="M70.6644 21.6945C71.576 21.6844 72.4848 21.7986 73.3656 22.034V24.0021C72.5338 23.4535 71.5605 23.1586 70.5641 23.1531C69.9235 23.1531 69.4527 23.3461 69.4527 23.8014C69.4527 25.1983 74.0834 25.2755 74.0834 27.7606C74.0834 29.3659 72.6093 30.238 70.1705 30.238C69.2078 30.2418 68.251 30.088 67.338 29.7827V27.7838C68.2792 28.3447 69.3341 28.6875 70.4251 28.7871C71.359 28.7871 71.8221 28.4321 71.8221 27.8841C71.8221 26.5258 67.1914 26.6415 67.1914 24.0252C67.2223 22.582 68.6038 21.6945 70.6644 21.6945Z" fill="#1D1D1B"></path>
        <path d="M77.7734 21.8721C77.7194 22.7905 77.6731 24.9592 77.6731 25.7309C77.6731 26.5027 77.6731 28.8875 77.7734 29.9989H75.2266C75.3732 28.7563 75.3886 26.4255 75.3886 25.7309C75.3886 25.0363 75.3269 22.7673 75.2729 21.8721H77.7734Z" fill="#1D1D1B"></path>
        <path d="M86.7255 21.872C86.6483 22.7904 86.6097 24.9591 86.6097 25.7309C86.6097 26.5026 86.6097 28.9028 86.7255 30.0142H84.9426L81.7629 25.2987C81.525 24.9772 81.3448 24.6168 81.2304 24.2336C81.2304 24.4729 81.2304 24.8587 81.2304 25.3141C81.2304 26.9194 81.2844 29.4662 81.3616 30.0142H79.3164C79.4476 28.7716 79.463 26.4409 79.463 25.7309C79.463 25.0208 79.4167 22.7827 79.3627 21.872H81.7321L84.1246 25.8157C84.3316 26.1122 84.5001 26.4338 84.6262 26.7727C84.6262 26.3714 84.6725 25.2909 84.6725 24.1796C84.6725 23.3229 84.6725 22.4354 84.6262 21.8643L86.7255 21.872Z" fill="#1D1D1B"></path>
        <path d="M96.0026 26.0631C95.905 26.9549 95.8587 27.8517 95.8637 28.7488C95.8637 29.0113 95.8637 29.2814 95.8637 29.5206C94.7573 30.0025 93.5583 30.2344 92.3521 30.1998C89.373 30.1998 87.6211 28.3321 87.6211 25.9859C87.6211 23.5162 89.4579 21.6948 92.738 21.6948C93.615 21.7064 94.4888 21.8046 95.3466 21.9881L94.7832 23.5316C94.1457 23.1816 93.4341 22.9884 92.7071 22.9683C90.7391 22.9683 90.1911 24.5658 90.1911 25.9319C90.1911 28.2472 91.3025 29.019 92.7225 29.019C93.0355 29.0138 93.3476 28.9854 93.6564 28.9341C93.699 27.984 93.6706 27.0321 93.5715 26.0862L96.0026 26.0631Z" fill="#1D1D1B"></path>
        <path d="M102.969 21.6945C103.881 21.6844 104.79 21.7986 105.67 22.034V24.0021C104.838 23.4535 103.865 23.1586 102.869 23.1531C102.228 23.1531 101.757 23.3461 101.757 23.8014C101.757 25.1983 106.388 25.2755 106.388 27.7606C106.388 29.3659 104.922 30.238 102.475 30.238C101.512 30.2418 100.556 30.088 99.6427 29.7827V27.7838C100.584 28.3447 101.639 28.6875 102.73 28.7871C103.664 28.7871 104.127 28.4321 104.127 27.8841C104.127 26.5258 99.4961 26.6415 99.4961 24.0252C99.5578 22.582 100.908 21.6945 102.969 21.6945Z" fill="#1D1D1B"></path>
        <path d="M111.311 30.1996C110.74 30.2341 110.168 30.1492 109.631 29.9503C109.094 29.7513 108.604 29.4427 108.193 29.0441C107.782 28.6454 107.459 28.1655 107.244 27.635C107.028 27.1044 106.926 26.5348 106.943 25.9625C106.919 25.0956 107.153 24.241 107.617 23.508C108.08 22.7751 108.752 22.197 109.546 21.8477C110.34 21.4985 111.22 21.3939 112.073 21.5473C112.927 21.7007 113.715 22.1052 114.338 22.709C114.961 23.3129 115.389 24.0887 115.568 24.9372C115.748 25.7857 115.67 26.6685 115.345 27.4726C115.02 28.2767 114.463 28.9657 113.744 29.4515C113.026 29.9372 112.179 30.1977 111.311 30.1996ZM111.311 22.7288C110.077 22.7288 109.313 23.8556 109.313 25.9625C109.313 28.0695 110.084 29.1345 111.311 29.1345C112.539 29.1345 113.264 28.0463 113.264 25.9625C113.264 23.8787 112.508 22.7288 111.311 22.7288Z" fill="#1D1D1B"></path>
        <path d="M123.177 30.0218H116.586C116.702 28.7793 116.702 26.4485 116.702 25.7539C116.702 25.0593 116.655 22.7903 116.601 21.895H119.102C119.048 22.8134 119.002 24.9821 119.002 25.7539C119.002 26.3019 119.002 27.7065 119.048 28.841H120.067C121.098 28.8447 122.128 28.7958 123.154 28.6944L123.177 30.0218Z" fill="#1D1D1B"></path>
        <path d="M126.571 21.8721C126.532 22.42 126.517 22.9834 126.517 23.5468V27.4057C126.517 28.4553 126.856 29.0804 127.952 29.0804C128.917 29.0804 129.835 28.71 129.835 27.0507V23.1532C129.859 22.7272 129.833 22.2999 129.758 21.8798H131.865C131.78 22.5898 131.78 23.925 131.78 25.2447V27.5601C131.78 29.42 130.484 30.2381 127.921 30.2381C125.606 30.2381 124.186 29.7519 124.186 27.4366V24.4498C124.198 23.589 124.159 22.7283 124.07 21.8721H126.571Z" fill="#1D1D1B"></path>
        <path d="M140.055 21.8721V23.2613C139.197 23.1309 138.33 23.0664 137.462 23.0683C137.4 23.9327 137.385 25.2216 137.385 25.7387C137.385 26.4333 137.385 28.7795 137.547 30.022H134.969C135.1 28.7795 135.131 26.4333 135.131 25.7387C135.131 24.8897 135.131 23.9559 135.069 23.0683C134.189 23.0741 133.31 23.1334 132.438 23.2458V21.8721H140.055Z" fill="#1D1D1B"></path>
        <path d="M143.297 21.8721C143.235 22.7905 143.189 24.9592 143.189 25.7309C143.189 26.5027 143.189 28.8875 143.297 29.9989H140.742C140.897 28.7563 140.912 26.4255 140.912 25.7309C140.912 25.0363 140.85 22.7673 140.788 21.8721H143.297Z" fill="#1D1D1B"></path>
        <path d="M148.66 30.1996C147.823 30.1798 147.01 29.9133 146.324 29.4335C145.637 28.9537 145.108 28.282 144.802 27.5025C144.496 26.7231 144.427 25.8706 144.603 25.052C144.78 24.2334 145.194 23.4852 145.794 22.9011C146.394 22.317 147.153 21.9231 147.976 21.7687C148.799 21.6143 149.65 21.7064 150.421 22.0333C151.192 22.3603 151.849 22.9076 152.31 23.6066C152.771 24.3056 153.016 25.1251 153.013 25.9625C153.029 26.5331 152.926 27.1008 152.711 27.6297C152.496 28.1587 152.174 28.6373 151.765 29.0355C151.356 29.4336 150.869 29.7426 150.335 29.943C149.8 30.1434 149.23 30.2307 148.66 30.1996ZM148.66 22.7288C147.425 22.7288 146.653 23.8556 146.653 25.9625C146.653 28.0695 147.425 29.1345 148.66 29.1345C149.895 29.1345 150.613 28.0463 150.613 25.9625C150.613 23.8787 149.856 22.7288 148.66 22.7288Z" fill="#1D1D1B"></path>
        <path d="M161.37 21.872C161.293 22.7904 161.246 24.9591 161.246 25.7309C161.246 26.5026 161.246 28.9028 161.37 30.0142H159.587L156.4 25.2987C156.168 24.9733 155.988 24.614 155.867 24.2336C155.867 24.4729 155.867 24.8587 155.867 25.3141C155.867 26.9194 155.921 29.4662 155.998 30.0142H153.953C154.084 28.7716 154.1 26.4409 154.1 25.7309C154.1 25.0208 154.053 22.7827 153.999 21.872H156.369L158.808 25.8157C159.017 26.1122 159.188 26.4337 159.317 26.7727C159.317 26.3714 159.363 25.2909 159.363 24.1796C159.363 23.3229 159.363 22.4354 159.317 21.8643L161.37 21.872Z" fill="#1D1D1B"></path>
        <path d="M165.872 21.6945C166.783 21.6844 167.692 21.7986 168.573 22.034V24.0021C167.738 23.4533 166.762 23.1584 165.763 23.1531C165.131 23.1531 164.66 23.3461 164.66 23.8014C164.66 25.1983 169.29 25.2755 169.29 27.7606C169.29 29.3659 167.824 30.238 165.378 30.238C164.418 30.2411 163.463 30.0873 162.553 29.7827V27.7838C163.494 28.3447 164.549 28.6875 165.64 28.7871C166.574 28.7871 167.037 28.4321 167.037 27.8841C167.037 26.5258 162.406 26.6415 162.406 24.0252C162.429 22.582 163.811 21.6945 165.872 21.6945Z" fill="#1D1D1B"></path>
      </g>
    </g>
  </g>
  <defs>
    <linearGradient id="paint0_linear_1255_15908" x1="17.5039" y1="-0.864388" x2="17.5039" y2="36.0882" gradientUnits="userSpaceOnUse">
      <stop stop-color="#00774A"></stop>
      <stop offset="0.6" stop-color="#8CCAAE"></stop>
      <stop offset="1" stop-color="#00975F"></stop>
    </linearGradient>
    <linearGradient id="paint1_linear_1255_15908" x1="17.4495" y1="-8.69814" x2="17.4495" y2="32.8234" gradientUnits="userSpaceOnUse">
      <stop stop-color="#00975F"></stop>
      <stop offset="0.3" stop-color="#8CCAAE"></stop>
      <stop offset="0.55" stop-color="#00975F"></stop>
      <stop offset="0.84" stop-color="#00774A"></stop>
      <stop offset="0.89" stop-color="#008052"></stop>
      <stop offset="0.98" stop-color="#009869"></stop>
      <stop offset="1" stop-color="#00A070"></stop>
    </linearGradient>
    <linearGradient id="paint2_linear_1255_15908" x1="24.0942" y1="30.5314" x2="24.0942" y2="3.66594" gradientUnits="userSpaceOnUse">
      <stop stop-color="#00A97C"></stop>
      <stop offset="1" stop-color="#00975F"></stop>
    </linearGradient>
    <linearGradient id="paint3_linear_1255_15908" x1="7.4231" y1="30.5391" x2="7.4231" y2="3.65819" gradientUnits="userSpaceOnUse">
      <stop stop-color="#00A97C"></stop>
      <stop offset="1" stop-color="#00975F"></stop>
    </linearGradient>
    <linearGradient id="paint4_linear_1255_15908" x1="12.6188" y1="30.5313" x2="12.6188" y2="3.66577" gradientUnits="userSpaceOnUse">
      <stop stop-color="#00A97C"></stop>
      <stop offset="1" stop-color="#00975F"></stop>
    </linearGradient>
    <linearGradient id="paint5_linear_1255_15908" x1="17.1098" y1="30.5316" x2="17.1098" y2="3.65838" gradientUnits="userSpaceOnUse">
      <stop stop-color="#00A97C"></stop>
      <stop offset="1" stop-color="#00975F"></stop>
    </linearGradient>
    <clipPath id="clip0_1255_15908">
      <rect width="169.559" height="35" fill="white"></rect>
    </clipPath>
  </defs>
</svg>
