<svg id="Laag_1" data-name="Laag 1" xmlns="http://www.w3.org/2000/svg" xmlns:xlink="http://www.w3.org/1999/xlink" viewBox="0 0 1284.5 337.52"><defs><style>.cls-1{fill:none;}.cls-2,.cls-5{fill:#333;}.cls-3,.cls-6{fill:#f6df23;}.cls-4{clip-path:url(#clip-path);}.cls-5,.cls-6{fill-rule:evenodd;}.cls-7{fill:#212121;}</style><clipPath id="clip-path" transform="translate(0 -177.85)"><rect class="cls-1" y="177.85" width="1284.5" height="199.16"/></clipPath></defs><title>Europabank_logo+baseline FR_rgb</title><rect class="cls-2" width="1284.5" height="199.16"/><rect class="cls-3" x="15.34" y="14.97" width="1252.64" height="167.85"/><g class="cls-4"><path class="cls-5" d="M42.57,276.6s-4-40,58.16-39.73c0,0,56.14-2,58.73,39.73a40,40,0,0,1,0,10.94c0,.29-75.14,0-75.14,0s-1.44,10.36,16.7,11.23h7.2s6.62.29,9.79-4.32h39.73s-.58,25.91-49.23,25.91H99.87s-56.72.86-57.29-41.75Z" transform="translate(0 -177.85)"/><path class="cls-5" d="M166.66,291.86V241.19h36.56v42s0,13,14.4,13.24c0,0,18.14,1.15,19-12.67V241.19h38v79.18H236.91V312.3s-12.09,8.06-31.1,8.06H198s-29.37.58-31.1-26.49Z" transform="translate(0 -177.85)"/><path class="cls-5" d="M282.69,320.37V241.19h37.72v7.2a7.39,7.39,0,0,1,2.88-2s10.94-5.47,23-5.47h7.49s21.59-.29,24.76,23v14.68H340v-6s-.86-7.2-9.5-7.2c0,0-10.94-1.15-10.94,12.67v42.32Z" transform="translate(0 -177.85)"/><path class="cls-5" d="M441.91,322.09c34,0,61.32-12.38,61.61-42.32.29-28.21-27.64-42.32-61.61-42.32s-61.61,14.69-61.33,42.32c.29,29.37,27.35,42.32,61.33,42.32" transform="translate(0 -177.85)"/><path class="cls-5" d="M548.43,341.38H509.85V241.19h38.29v5.18a75,75,0,0,1,32-6.91s45.2-2.3,47.22,38.29v4.32s4,36-42,40.31c0,0-19.86,1.73-36.85-5.76Z" transform="translate(0 -177.85)"/><path class="cls-5" d="M635.67,263.94v-3.45s2.59-24.47,45.78-23.9h12.38s51-2,53,28.5v50.67s.29,4.6,4.9,4.6H714.27s-3.45-.29-5.76-7.48c0,0-12.67,8.06-32.24,8.35h-4.32s-40,.58-40.6-23.9V291s-2.3-25.91,59.6-24.18H706.5s0-6.33-6.33-7.77c-6.62-1.44-15-1.73-20.15.86,0,0-2.59,1.73-2.88,4Z" transform="translate(0 -177.85)"/><path class="cls-5" d="M755.15,320.37V215.86h38v30.23A85.12,85.12,0,0,1,824,240.62s48.95-3.17,50.39,40c0,0,3.74,42-46.93,42.32,0,0-23,0-33.68-7.48v4.89Z" transform="translate(0 -177.85)"/><path class="cls-5" d="M884.14,263.94l.29-3.45S887,236,930.2,236.58h12.38s51-2,53,28.5v50.67a5.47,5.47,0,0,0,5.76,4.6H962.74s-3.45-.29-5.76-7.48c0,0-12.38,8.06-32.25,8.35h-4s-40,.58-40.6-23.9V291s-2.59-25.91,59.6-24.18H955s1.15-6.62-6.62-8.06c-6.62-1.15-13.53-2-19.29.86,0,0-2.3.58-3.46,4.32Z" transform="translate(0 -177.85)"/><path class="cls-6" d="M85.47,266.53s1.73-8.35,15.26-8.35h2s11.8-.58,15.26,8.35Z" transform="translate(0 -177.85)"/><path class="cls-6" d="M441.91,299.63c11.51,0,21-8.92,21-19.86s-9.5-19.87-21-19.87-20.73,8.93-20.73,19.87,9.21,19.86,20.73,19.86" transform="translate(0 -177.85)"/><path class="cls-6" d="M568,297.33c10.94,0,19.87-7.49,19.87-16.41S579,264.8,568,264.8s-19.87,7.2-19.87,16.12,8.93,16.41,19.87,16.41" transform="translate(0 -177.85)"/><path class="cls-6" d="M708.22,286.39v3.17s-3.17,8.63-18.14,9.21h-6.33s-11.52-.86-11.52-5.18c0,0-1.15-6.91,15.55-7.2Z" transform="translate(0 -177.85)"/><path class="cls-6" d="M813.89,297.62c11.23,0,20.15-7.49,20.15-16.41s-8.93-16.12-20.15-16.12-20.15,7.2-20.15,16.12,8.92,16.41,20.15,16.41" transform="translate(0 -177.85)"/><path class="cls-6" d="M957,286.39v3.17s-3.46,8.63-18.14,9.21h-6.62S921,297.91,921,293.59c0,0-1.44-6.91,15.26-7.2Z" transform="translate(0 -177.85)"/><path class="cls-5" d="M1007.65,320.37V241.19h36.56v9.5s11.52-9.5,36.28-9.5c0,0,37.14-.86,37.72,31.67v47.5h-36.56V280.63s.29-13.24-18.43-13.82c0,0-18.14-.29-18.14,13.82v39.73Z" transform="translate(0 -177.85)"/><polygon class="cls-5" points="1128.29 142.51 1128.29 38.86 1165.14 38.86 1165.14 85.51 1192.2 63.33 1241.15 63.33 1210.92 91.55 1245.18 142.51 1197.96 142.51 1178.67 114.3 1166.01 124.37 1166.01 142.51 1128.29 142.51"/></g><path class="cls-7" d="M235.8,431.11H250V485h32.68L281,496.56H235.8Z" transform="translate(0 -177.85)"/><path class="cls-7" d="M330.61,483.83a109.48,109.48,0,0,0,.67,12.73h-13a19.22,19.22,0,0,1-.67-4.84c-1.81,2.75-5.13,6-13.87,6-11.88,0-16.82-7.79-16.82-15.39,0-11.21,8.93-16.44,23.37-16.44h7v-2.95c0-3.51-1.24-6.93-7.6-6.93-5.7,0-7,2.38-7.6,6H289.19c.67-8.74,6.08-15.77,21.09-15.77,13.11.09,20.33,5.22,20.33,17Zm-13.3-9.69H311.8c-8.26,0-11.3,2.56-11.3,7.31,0,3.52,2.18,6.56,7.13,6.56,8.65,0,9.69-6.08,9.69-12.54Z" transform="translate(0 -177.85)"/><path class="cls-7" d="M365.85,427.21h13.68v25.37c2-3.13,6.08-6.37,14.06-6.37,13.4,0,20,11.12,20,24.89,0,14.06-7.22,26.6-21.38,26.6-7.31,0-10.54-2.18-12.92-5.79a22.27,22.27,0,0,1-.57,4.66h-13c.09-5.32.09-10.74.09-16.06Zm23.56,29.92c-7.79,0-10.54,5-10.54,15.11,0,8.26,2.47,14.63,10.35,14.63,6.94,0,10.64-6.17,10.64-15.49C399.86,463.12,396.73,457.14,389.41,457.14Z" transform="translate(0 -177.85)"/><path class="cls-7" d="M463.8,483.83a109.48,109.48,0,0,0,.67,12.73h-13a19.26,19.26,0,0,1-.67-4.84c-1.8,2.75-5.13,6-13.87,6-11.87,0-16.82-7.79-16.82-15.39,0-11.21,8.93-16.44,23.37-16.44h7v-2.95c0-3.51-1.23-6.93-7.6-6.93-5.7,0-7,2.38-7.6,6H422.38c.67-8.74,6.08-15.77,21.09-15.77,13.11.09,20.33,5.22,20.33,17Zm-13.3-9.69H445c-8.26,0-11.3,2.56-11.3,7.31,0,3.52,2.18,6.56,7.13,6.56,8.64,0,9.69-6.08,9.69-12.54Z" transform="translate(0 -177.85)"/><path class="cls-7" d="M476.15,459.8c0-4.18,0-8.74-.1-12.45h13.21c.29,1.33.48,4.75.57,6.27,1.62-3,5.61-7.41,14.25-7.41,9.88,0,16.25,6.75,16.25,19.09v31.26H506.74V466.83c0-5.61-1.8-9.59-7.88-9.59-5.79,0-9,3.23-9,12v27.36H476.15Z" transform="translate(0 -177.85)"/><path class="cls-7" d="M563.93,491.34c-2.75,4.46-7.12,6.36-13.68,6.36-10.93,0-20.71-8.17-20.71-25.27,0-15.87,9.5-26.22,21.85-26.22,7.79,0,11.4,3.23,12.54,5.79.09-1.24.29-3.42.48-4.66h12.82c0,4.18-.09,9-.09,13.49v54.53H563.93Zm-10.07-4.56c8.36,0,10.26-6,10.26-14.92,0-9.5-1.9-14.73-10-14.73-7.32,0-10.64,6.08-10.64,14.92S546.73,486.78,553.86,486.78Z" transform="translate(0 -177.85)"/><path class="cls-7" d="M632.61,482.31c0,4.66,0,9.88.09,14.25h-13.3c-.19-1.33-.29-4-.38-5.7-2.95,4.94-7.22,6.84-13.58,6.84-10,0-16.34-6.08-16.34-18.24V447.35h13.58v29.36c0,5.42,1.71,9.88,7.6,9.88,6.17,0,8.74-3.32,8.74-13V447.35h13.58Z" transform="translate(0 -177.85)"/><path class="cls-7" d="M655.7,474.9c0,6.17,3.13,12.16,9.88,12.16,5.7,0,7.32-2.28,8.65-5.23h13.58c-1.71,6-7.12,15.87-22.52,15.87-16.25,0-23.28-12.06-23.28-25,0-15.48,7.89-26.5,23.75-26.5,16.81,0,22.61,12.25,22.61,24.51a28.69,28.69,0,0,1-.19,4.18Zm19-8.36c-.09-5.7-2.37-10.54-9-10.54-6.46,0-9.12,4.46-9.69,10.54Z" transform="translate(0 -177.85)"/><path class="cls-7" d="M752.12,491.34c-2.75,4.46-7.12,6.36-13.68,6.36-10.93,0-20.71-8.17-20.71-25.27,0-15.87,9.5-26.22,21.85-26.22,7.79,0,11.4,3.23,12.54,5.79.09-1.24.29-3.42.48-4.66h12.82c0,4.18-.09,9-.09,13.49v54.53H752.12ZM742,486.78c8.36,0,10.26-6,10.26-14.92,0-9.5-1.9-14.73-10-14.73-7.32,0-10.64,6.08-10.64,14.92S734.92,486.78,742,486.78Z" transform="translate(0 -177.85)"/><path class="cls-7" d="M820.8,482.31c0,4.66,0,9.88.09,14.25H807.6c-.19-1.33-.29-4-.38-5.7-2.95,4.94-7.22,6.84-13.58,6.84-10,0-16.34-6.08-16.34-18.24V447.35h13.58v29.36c0,5.42,1.71,9.88,7.6,9.88,6.17,0,8.74-3.32,8.74-13V447.35H820.8Z" transform="translate(0 -177.85)"/><path class="cls-7" d="M833.06,439.37V427.21h13.68v12.16Zm0,8h13.68v49.21H833.06Z" transform="translate(0 -177.85)"/><path class="cls-7" d="M927.68,471.86c0,14.92-8.93,25.84-24.51,25.84C888,497.7,879,486.78,879,472.15c0-15.2,9.21-25.94,24.79-25.94C918.27,446.21,927.68,456.47,927.68,471.86Zm-34.87.09c0,9.5,4.08,15.11,10.64,15.11,6.75,0,10.45-5.61,10.45-15,0-10.26-3.8-15.1-10.64-15.1C897,456.95,892.81,461.6,892.81,472Z" transform="translate(0 -177.85)"/><path class="cls-7" d="M947.05,481.74c1,4,4.27,6.17,9.31,6.17s6.84-1.8,6.84-4.84-2.09-4.37-9.12-6.08c-16.06-4-18.62-8.93-18.62-15.87,0-7.22,5-14.92,19.86-14.92s20,8.17,20.43,14.82H962.82c-.48-1.81-1.71-5.23-8.08-5.23-4.47,0-6,2-6,4.18,0,2.47,1.52,3.61,9.5,5.51,16.44,3.8,18.81,9.41,18.81,16.63,0,8.17-6.27,15.58-21.19,15.58s-21.09-7.22-22.23-16Z" transform="translate(0 -177.85)"/><path class="cls-7" d="M996.83,474.9c0,6.17,3.13,12.16,9.88,12.16,5.7,0,7.32-2.28,8.65-5.23h13.58c-1.71,6-7.13,15.87-22.52,15.87-16.25,0-23.27-12.06-23.27-25,0-15.48,7.88-26.5,23.75-26.5,16.82,0,22.61,12.25,22.61,24.51a28.69,28.69,0,0,1-.19,4.18Zm19-8.36c-.09-5.7-2.37-10.54-9-10.54-6.46,0-9.12,4.46-9.69,10.54Z" transform="translate(0 -177.85)"/><path class="cls-7" d="M1037.3,496.56V479.84h14.54v16.72Z" transform="translate(0 -177.85)"/></svg>