<?xml version="1.0" encoding="utf-8"?>
<!-- Generator: Adobe Illustrator 21.1.0, SVG Export Plug-In . SVG Version: 6.00 Build 0)  -->
<svg version="1.1" id="Ebene_1" xmlns="http://www.w3.org/2000/svg" xmlns:xlink="http://www.w3.org/1999/xlink" x="0px" y="0px"
     viewBox="-337.768 306.167 284 51.334" enable-background="new -337.768 306.167 284 51.334" xml:space="preserve">
<g>
	<polygon fill="#3350A4" points="-117.32,307.4 -135.683,307.4 -150.09,324.258 -150.09,307.4 -163.998,307.4 -164.082,333.58 
		-178.183,307.4 -193.424,307.4 -193.424,356.332 -179.338,356.332 -179.205,329.605 -164.354,356.332 -163.998,356.332 
		-150.09,356.332 -150.09,341.871 -144.965,337.279 -133.039,356.332 -114.475,356.332 -134.87,326.517 	"/>
	<path fill="#3350A4" d="M-310.449,339.864h6.658c-0.439,1.819-1.401,3.181-2.885,4.084c-1.484,0.898-3.132,1.347-4.942,1.347
		c-3.038-0.069-5.356-0.824-6.959-2.254s-2.698-3.117-3.275-5.061c-0.582-1.943-0.858-3.713-0.824-5.321
		c-0.069-1.233,0.03-2.965,0.296-5.198c0.267-2.229,1.105-4.271,2.525-6.126c1.415-1.854,3.818-2.841,7.206-2.954
		c1.825,0.03,3.394,0.602,4.701,1.716c1.311,1.11,2.125,2.575,2.441,4.394h14.475c-1.12-5.809-3.596-10.303-7.427-13.484
		c-3.832-3.183-8.882-4.795-15.151-4.84c-3.778-0.02-7.506,0.853-11.176,2.633c-3.675,1.777-6.733,4.588-9.174,8.44
		c-2.447,3.852-3.714,8.878-3.808,15.078c0.02,4.695,0.972,8.937,2.846,12.725c1.879,3.783,4.562,6.792,8.049,9.026
		c3.492,2.239,7.66,3.383,12.507,3.432c2.713,0.015,5.283-0.473,7.714-1.465c2.432-0.991,4.508-2.559,6.224-4.705l0.478,5.006h9.534
		v-26.969h-20.033V339.864z"/>
	<path fill="#3350A4" d="M-240.678,349.121c-0.084-1.346-0.153-2.441-0.212-3.284c-0.287-3.087-1.041-5.687-2.264-7.808
		c-1.228-2.121-2.875-3.59-4.941-4.409c2.495-1.002,4.35-2.649,5.548-4.932c1.203-2.284,1.801-4.735,1.796-7.354
		c-0.04-3.093-0.789-5.672-2.239-7.749c-1.455-2.076-3.384-3.635-5.796-4.68c-2.406-1.046-5.055-1.569-7.955-1.569h-28.76v49.001
		h15.092v-17.09h8.035c1.958,0.03,3.403,0.508,4.33,1.436c0.928,0.927,1.544,2.111,1.855,3.556c0.305,1.445,0.513,2.96,0.616,4.548
		c0.094,1.273,0.231,2.54,0.414,3.798c0.177,1.268,0.454,2.515,0.824,3.753h15.092c-0.448-0.798-0.779-1.864-0.991-3.196
		C-240.446,351.809-240.595,350.467-240.678,349.121z M-258.123,327.962c-1.416,0.597-2.876,0.858-4.385,0.789h-7.902v-9.756h7.078
		c2.836,0.01,4.804,0.433,5.904,1.277c1.104,0.844,1.628,2.042,1.583,3.601C-255.949,325.999-256.708,327.36-258.123,327.962z"/>
	<polygon fill="#3350A4" points="-222.651,337.664 -199.519,337.664 -199.519,326.004 -222.651,326.004 -222.651,319.889 
		-197.187,319.889 -197.187,307.336 -237.744,307.336 -237.744,356.337 -196.432,356.337 -196.432,343.785 -222.651,343.785 	"/>
	<polygon fill="#3350A4" points="-97.953,343.785 -97.953,337.664 -74.821,337.664 -74.821,326.004 -97.953,326.004 
		-97.953,319.889 -72.482,319.889 -72.482,307.336 -113.044,307.336 -113.044,356.337 -71.728,356.337 -71.728,343.785 	"/>
</g>
<g>
	<path fill="#707070" d="M-55.348,310.083c-0.681-1.169-1.608-2.097-2.777-2.782c-1.169-0.681-2.497-1.031-3.98-1.046
		c-1.48,0.015-2.806,0.365-3.975,1.046c-1.175,0.685-2.101,1.613-2.782,2.782c-0.681,1.173-1.026,2.495-1.041,3.97
		c0.015,1.48,0.36,2.802,1.041,3.971c0.681,1.174,1.607,2.101,2.782,2.781c1.169,0.686,2.496,1.037,3.975,1.051
		c1.484-0.014,2.811-0.365,3.98-1.051c1.169-0.68,2.096-1.607,2.777-2.781c0.681-1.169,1.03-2.491,1.045-3.971
		C-54.318,312.579-54.668,311.257-55.348,310.083z M-56.384,317.448c-0.572,1.005-1.346,1.805-2.333,2.392
		c-0.99,0.592-2.117,0.893-3.388,0.908c-1.268-0.015-2.398-0.316-3.384-0.908c-0.987-0.587-1.766-1.386-2.332-2.392
		c-0.567-1.002-0.858-2.137-0.868-3.394c0.01-1.257,0.301-2.387,0.868-3.393c0.566-1.006,1.345-1.8,2.332-2.392
		c0.986-0.591,2.117-0.892,3.384-0.902c1.271,0.01,2.398,0.311,3.388,0.902c0.986,0.592,1.761,1.386,2.333,2.392
		c0.567,1.007,0.857,2.136,0.867,3.393C-55.527,315.311-55.817,316.446-56.384,317.448z"/>
	<path fill="#707070" d="M-59.215,313.817c0.434-0.395,0.656-0.987,0.676-1.776c0.005-0.814-0.232-1.43-0.705-1.854
		c-0.473-0.424-1.217-0.637-2.229-0.642h-3.458v9.021h1.111v-4.01h1.864l2.539,4.01h1.298l-2.683-4.01
		C-60.178,314.458-59.645,314.217-59.215,313.817z M-62.358,313.615h-1.464v-3.127h2.031c0.568-0.015,1.061,0.089,1.481,0.306
		c0.419,0.217,0.641,0.631,0.66,1.248c-0.024,0.734-0.305,1.189-0.842,1.361C-61.026,313.575-61.646,313.644-62.358,313.615z"/>
</g>
</svg>