<svg enable-background="new 0 0 531.2 286.6" viewBox="0 0 531.2 286.6" xmlns="http://www.w3.org/2000/svg"><path d="m.2 241.8 18.6 19.5h491.6l20.7-20.9v-193.5l-42.7-27.3-225.4-13.7-226.9 16-35.9 28.8z" fill="#fff"/><path d="m356.9 182.3c-1 0-1.8 0-2.6 0-117.5 0-235 0-352.6 0-1.6 0-1.6 0-1.6-1.6 0-46.6 0-93.1 0-139.7 0-7.6 3.1-13.2 9.8-16.9 2-1.1 4-2 6.1-2.7 6.8-2.2 13.8-3.6 20.8-5 10.5-2.1 21-3.8 31.6-5.3 13-1.8 25.8-3.2 38.6-4.4 12.9-1.2 25.8-2.2 38.7-3s25.8-1.5 38.7-1.9c7.4-.3 14.9-.5 22.3-.7 8-.2 15.9-.3 23.9-.5 19.2-.3 38.4-.1 57.6-.2 8.2 0 16.5.1 24.7.3 10.9.3 21.9.5 32.8 1 11.3.4 22.7 1 34 1.6 13.2.7 26.3 1.7 39.4 2.9 13.6 1.2 27.3 2.7 40.9 4.5 16.3 2.2 32.5 5 48.5 8.9 4.5 1.1 8.9 2.4 12.9 4.6 6.5 3.6 9.7 9 9.7 16.4v140.6c0 .7 0 1.1-.9 1.1-16.4 0-32.7 0-49.1 0-.1 0-.3 0-.5 0 21.9-20.9 32.4-46.3 29.9-76.4-2-24.5-12.5-45-30.8-61.3-36.8-32.6-93.1-30.6-127.4 5.2-17.9 18.7-26.6 41.2-25.7 67.1.8 25.9 11.3 47.5 30.3 65.4zm-331.8-34.9c-.1 1.1.1 2.4.4 3.8 1.9 7.5 8.4 12.7 16.7 13 7.6.3 14-3.8 17-11.2 2.3-5.9 4.8-11.6 7.2-17.5.2-.6.5-.8 1.1-.8h41.3c.5 0 .8.1 1.1.7 2.3 5.6 4.6 11.2 6.8 16.9 3.8 9.9 14 14.4 23.8 10.3 5.9-2.5 11.1-8.3 10.4-16.5-.3-3-1.1-5.8-2.1-8.6-10.5-27.8-20.9-55.7-31.4-83.5-1.7-4.5-3.1-9.2-5.6-13.5-8.6-15.1-26.6-16.9-37.9-9.7-5.9 3.7-9.6 9.2-12 15.6-11.4 29.7-22.7 59.4-34 89.2-1.5 3.7-2.8 7.4-2.8 11.8zm133.4-51.2c.1 16.7 0 33.4.1 50.2 0 5.7 2.5 10.4 7 13.8 5.7 4.4 11.9 4.9 18.3 1.8 6.4-3.2 9.9-8.6 10.1-15.8.1-8.1.1-16.2 0-24.4 0-1 .3-1.2 1.3-1.2h19.3c5.3 0 10.6-.7 15.7-2.2 12-3.5 21.5-10.3 27.4-21.5 4.9-9.4 6.2-19.4 4.7-29.8-1.7-11.9-7.3-21.6-16.9-28.9-9-6.8-19.3-9.8-30.5-9.9-12.9-.1-25.8-.1-38.6 0-7.6.1-13.1 3.7-16.1 10.7-1.3 3.1-1.6 6.3-1.6 9.6-.2 15.9-.2 31.8-.2 47.6zm112.9-.8v50c0 1.1.1 2.2.2 3.2 1.3 10.1 11.3 17.1 21.2 14.8 8.5-2 14.1-9 14.1-17.9 0-33.1 0-66.1 0-99.2 0-1.4-.1-2.7-.2-4.1-1-8.5-8.9-15.5-17.5-15.5-9.8.1-17.8 8.1-17.8 17.9z" fill="#003884"/><g fill="#eb681f"><path d="m265.6 211.9h263.9c1.6 0 1.6 0 1.6 1.6 0 10.5-.1 21 0 31.6.1 8.8-3.9 14.7-11.7 18.3-4.8 2.2-10 3.4-15.1 4.6-14.6 3.4-29.4 5.8-44.3 7.9-10.6 1.5-21.3 2.7-32 3.7-15.5 1.5-31.1 2.7-46.6 3.6-11.5.7-22.9 1.2-34.4 1.7-10.9.4-21.7.7-32.6 1-25.8.6-51.7.4-77.5.4-9.4 0-18.8-.3-28.2-.5-13.2-.3-26.4-.8-39.7-1.4-9.5-.5-19-1-28.5-1.6-9.8-.6-19.6-1.4-29.4-2.3-7.4-.7-14.9-1.4-22.3-2.3-9.7-1.1-19.4-2.4-29.1-3.9-11.3-1.8-22.6-3.8-33.7-6.4-4.9-1.2-9.9-2.3-14.5-4.6-5.2-2.7-9.3-6.3-10.7-12.3-.4-1.8-.6-3.6-.6-5.5 0-10.6 0-21.3 0-31.9 0-1.7 0-1.7 1.7-1.7zm-214.3 40.4c0-1.3-.6-2.5-1-3.7-2.5-6.9-4.9-13.8-7.4-20.7-.7-1.9-1.7-3.4-3.7-3.9-2.9-.8-5.3.6-6.6 3.9-2.5 6.4-5 12.9-7.4 19.3-.5 1.4-1.3 2.8-1.5 4.3-.4 2 .6 3.6 2.4 4.1 1.9.5 3.7-.4 4.4-2.3.4-1 .7-2 .9-3.1.1-.6.4-.8 1-.8h10.3c.6 0 .9.2 1.1.8.3 1.2.6 2.3 1.1 3.4.6 1.6 2.2 2.3 3.9 1.9 1.6-.4 2.6-1.5 2.5-3.2zm141.2-18c-.6-.6-1-1.2-1.5-1.7-1.3-1.3-2.9-1.2-4.2.1-.7.7-.9 1.5-1 2.5-.1 5.7-.1 11.4-.2 17 0 2.3 1.9 3.8 4.1 3.3 1.7-.4 2.6-1.7 2.6-3.7 0-2.8.1-5.6 0-8.4-.1-1.8.7-3 2.1-3.9 1.2-.9 2.7-1.3 4.1-1.9.9-.4 1.5-.8 2.4 0 .3.3 1 .4 1.5.4.9-.1 1.1.3 1 1.1-.1 4.3-.2 8.6-.2 12.9 0 2.2 1.3 3.6 3.3 3.6 1.9 0 3.3-1.4 3.3-3.6 0-3.9.1-7.8.1-11.8 0-2.2 0-2.2 2.2-2.3 1.6-.1 2.8-1.4 2.9-3 0-1.5-1.1-2.8-2.7-3-.5 0-1 0-1.4 0-.6 0-.9-.1-.8-.8.1-.9.1-1.9.1-2.9 0-2-1.4-3.5-3.3-3.5s-3.3 1.5-3.4 3.5v2.9c0 .3.1.9-.4.8-1.6-.2-3.3 1.8-4.9-.1-.2-.2-.6-.1-.9-.2-2.2 0-3.5 1.2-4.8 2.7zm-58.7 8.3c-.1 0-.2 0-.2 0v9.1c0 2.3 1.4 3.9 3.5 3.9s3.5-1.6 3.6-3.8c0-1.9.1-3.8 0-5.8 0-.7.2-.9.9-.9 1.8 0 3.5.1 5.3 0 5.7-.3 9.6-4.4 9.7-9.9.1-6.2-3.4-10.4-9.3-11-3-.3-6-.1-9-.1-3.1 0-4.4 1.3-4.5 4.4-.1 4.8 0 9.4 0 14.1zm257 .9h.2c0-3 0-5.9 0-8.9 0-1.6-1.1-2.7-2.7-2.9-1.5-.2-2.3.8-3.1 1.7-.3.4-.5.7-1.1.2-3.1-2.5-6.8-2.7-10.2-.6-6.6 3.9-7.7 14.6-2.1 20 3.1 3 9.3 4 12.1.5.5-.6.7-.2 1 .2.8.9 1.5 2.1 3.1 1.9 1.8-.3 2.9-1.5 2.9-3.4-.1-2.9-.1-5.8-.1-8.7zm-209.7-.1h.2c0-2.9 0-5.8 0-8.7 0-1.9-1.7-3.3-3.5-3-1 .2-1.8.9-2.4 1.7-.4.5-.7.6-1.1.1-2.8-2.9-7.9-2.2-10.6-.4-3.2 2.2-4.9 5.3-5.3 9.1-.5 4.9.9 9.2 5.3 12 3.2 2.1 7.4 1.9 9.8-.4.9-.9 1.2-.7 1.9.2 1.4 1.8 3 2 4.5.8.9-.7 1.1-1.7 1.1-2.8.1-2.8.1-5.7.1-8.6zm313.5 0h.2c0-2.9 0-5.7 0-8.6 0-2-1.7-3.4-3.6-3-1 .2-1.6.9-2.2 1.6-.5.6-.8.7-1.4.1-2.2-2-4.7-2.2-7.4-1.5-4.7 1.2-7.9 5.5-8.3 10.8-.4 5.5 2.2 10.5 6.7 12.3 2.8 1.1 5.7 1.3 8.2-.8 1.2-1 1.2-1 2.3.2 1.6 1.7 3.8 1.6 5-.3.4-.7.5-1.5.5-2.3 0-2.9 0-5.7 0-8.5zm-186.2 2.3h12.9c1.8 0 2.5-.7 2.6-2.5.3-6.1-4.8-11.5-10.9-11.5-4.7 0-8.3 2.1-10.4 6.2-2.3 4.4-2.3 9 .7 13.2 2.9 4.2 7.3 5.2 12.1 4.6 2.7-.3 5.3-1.2 7.3-3.3 1-1 1.1-2.4.4-3.4s-2.1-1.5-3.3-1c-.6.2-1.1.5-1.6.8-.7.4-1.5.7-2.3 1-3.2.8-6.8-.5-7.5-4.1zm112-2.1c0 8.1 6.2 13.4 13.8 11.9 5.8-1.2 9.9-7.5 8.9-13.7-1-6.1-5.3-10.1-10.9-10.2-6.6-.2-11.8 5.1-11.8 12zm-326.8.4c-.1.7.1 1.6.2 2.5 1.6 8.5 11.3 12.2 18 6.8 4-3.2 5.1-7.5 4.3-12.4-1.1-6.5-7.5-10.7-13.9-9-5.3 1.4-8.6 6.1-8.6 12.1zm374.4 2h.2c0-2.1 0-4.2 0-6.2 0-.9-.1-1.8-.4-2.7-1.5-5.2-9.1-7.4-13.5-3.8-.9.7-1.2.5-1.8-.2-.7-.9-1.6-1.6-2.9-1.3-1.2.3-2.1 1.2-2.4 2.4-.1.3-.1.6-.1.9-.1 5.7-.2 11.4-.2 17.1 0 1.9 1.5 3.4 3.3 3.4 1.9 0 3.4-1.5 3.4-3.5 0-3.5.1-7 .1-10.5 0-.6 0-1.2.2-1.8.6-1.8 2.4-2.9 4.3-2.6s3.1 2 3.1 4.3c0 3.6-.1 7.2-.1 10.8 0 1.9 1.4 3.3 3.3 3.4 1.9 0 3.4-1.4 3.4-3.4.1-2.1.1-4.2.1-6.3zm-124.6-2.3c-.1 0-.1 0-.2 0v4.4 4c0 2 1.4 3.5 3.2 3.6 1.9.1 3.5-1.5 3.5-3.5.1-3.6.1-7.2.1-10.8 0-2.5 1.6-4.2 3.8-4.2 2.3 0 3.8 1.7 3.8 4.2 0 3.6-.1 7.3-.1 10.9 0 1.9 1.4 3.4 3.3 3.4 1.8 0 3.4-1.4 3.4-3.3.1-4.4.1-8.8.1-13.2 0-1.9-.6-3.7-2-5.1-2.9-3-8.4-3.5-11.7-1-1 .7-1.4.7-2.1-.2-.8-1-1.8-1.6-3.1-1s-2.1 1.6-2.1 3c0 2.9.1 5.9.1 8.8zm-81.5.1c-.1 0-.1 0-.2 0v8.4c0 .8.2 1.5.7 2.1.9 1.2 2.3 1.6 3.8 1.1 1.4-.5 2.3-1.7 2.3-3.3 0-3.6 0-7.2.1-10.8 0-2.5 1.6-4.2 3.9-4.2s3.8 1.6 3.8 4.2c0 3.5-.1 7-.1 10.5 0 2.1 1.3 3.7 3.3 3.8 2 0 3.5-1.4 3.5-3.6 0-4.3.1-8.6.1-12.9 0-1.1-.2-2.1-.6-3.1-2.1-4.5-9.2-6.1-13.2-2.8-.8.6-1 .5-1.6-.2-1.5-1.8-3.3-1.9-4.7-.3-.7.8-.9 1.8-.9 2.8-.2 2.8-.2 5.6-.2 8.3zm-186.6-2.8h.2c0-2 0-3.9 0-5.9 0-.9-.2-1.7-.8-2.3-.9-1-2.1-1.4-3.4-1s-2.2 1.3-2.5 2.7c-.3 1.6-.1 3.2-.1 4.8-.1 2.6.3 5.2-.3 7.8-.4 1.9-1.8 2.8-3.9 2.7-1.8-.1-3-1.2-3.3-3-.1-.6-.1-1.2-.1-1.8 0-3.3.1-6.6.1-9.8 0-2-1.4-3.4-3.3-3.4-1.8 0-3.4 1.3-3.5 3.1-.1 4-.2 8.1-.2 12.1.1 4.1 2.4 7.2 6.3 8.2 2.5.7 5 .8 7.6.2 4.4-1 6.9-4 7.2-8.5.1-2 0-4 0-5.9zm148.6 14.7c2 .1 3.9-.4 5.6-1.4 2.4-1.4 3.7-3.4 3.6-6.2 0-2.7-1.5-4.5-3.8-5.6-1.3-.6-2.6-1.2-3.9-1.7-.8-.3-1.5-.7-2.3-1-.6-.3-.8-.7-.8-1.4.1-.7.6-1 1.1-1.1.7-.2 1.4-.1 2.1 0 1.1.2 2 .7 3 1.1 1.1.5 2.2.5 3.2-.4 1.4-1.3 1.1-3.3-.6-4.6-1.5-1.2-3.3-1.7-5.1-1.8-3.1-.3-6 .3-8.3 2.5-2.7 2.5-3.2 8.5 1.7 10.4.9.4 1.8.7 2.7 1.1 1.2.5 2.6.8 3.7 1.7 1 .7.9 1.8-.1 2.4-.6.4-1.3.5-2.1.4-1.1-.2-2.1-.6-3-1.1-.7-.4-1.5-.8-2.3-1-1.9-.3-3.4 1-3.4 2.9 0 1.3.8 2.1 1.7 2.7 2.2 1.6 4.7 2.1 7.3 2.1zm173.2-10.2c-.1 0-.1 0-.2 0v6.7c0 2 1.4 3.4 3.3 3.4 2 0 3.3-1.5 3.3-3.7 0-3.8 0-7.7.1-11.5 0-.7-.2-1.6.1-2.1.4-.7 1.4-.2 2.1-.3 1.6-.2 2.8-1.4 2.8-3s-1.2-2.8-2.8-2.9c-.4 0-.9 0-1.3 0-.6 0-.8-.2-.8-.8 0-1 .1-2 .1-3 0-2-1.4-3.4-3.2-3.4-1.9 0-3.3 1.5-3.4 3.5 0 1-.1 1.9 0 2.9 0 .7-.2.9-.9.9-2 .1-3.2 1.2-3.3 2.9 0 1.8 1.2 3 3.3 3 .7 0 .9.2.8.9zm-309.1 0s.1 0 0 0c.1-1.8.1-3.5.1-5.3 0-2.2 0-2.2 2.2-2.3 1.6-.1 2.8-1.4 2.8-3s-1.1-2.9-2.8-3c-.4 0-.9 0-1.3 0-.7.1-.8-.2-.8-.8.1-.9 0-1.8.1-2.8 0-2-1.3-3.5-3.2-3.6s-3.4 1.4-3.5 3.5v2.6c0 .8-.2 1.1-1.1 1.1-1.9 0-3.1 1.2-3.1 2.9s1.2 3 3.1 3c1 0 1.1.3 1.1 1.2-.1 4.2-.2 8.5-.2 12.7 0 2.3 1.2 3.8 3.2 3.8s3.4-1.5 3.4-3.7c0-2.1 0-4.2 0-6.3zm201.2 0c-.1 0-.1 0-.2 0v6.5c0 2.2 1.3 3.6 3.3 3.6 1.9 0 3.3-1.5 3.3-3.6 0-3.9.1-7.7.1-11.6 0-2.2 0-2.2 2.2-2.4 1.5-.1 2.7-1.4 2.8-2.9s-1-2.8-2.5-3c-.8-.1-1.9.4-2.3-.3-.4-.6-.1-1.6-.1-2.5 0-.3 0-.6 0-.8 0-2.1-1.3-3.5-3.2-3.6-1.9 0-3.3 1.4-3.4 3.4 0 1-.1 1.9-.1 2.9 0 .7-.2.9-.9.9-2 .1-3.3 1.2-3.3 2.9 0 1.8 1.2 3 3.3 3 .8 0 .9.4.8 1 .2 2.1.2 4.3.2 6.5zm210.2-1.9c-.1 0-.2 0-.3 0v8.4c0 2.2 1.3 3.6 3.3 3.6s3.4-1.4 3.4-3.5c.1-9 .2-17.9.3-26.9 0-2.2-1.3-3.6-3.3-3.6-2.1 0-3.5 1.4-3.5 3.6.1 6.1.1 12.3.1 18.4zm-249-3.7c-.1 0-.2 0-.3 0v12c0 2.6 2.1 4.3 4.6 3.6 1.6-.4 2.5-1.8 2.5-3.8 0-3.2 0-6.5.1-9.7 0-4.8.1-9.6.2-14.4 0-1.8-.9-3.1-2.3-3.6-2.5-.8-4.7.9-4.7 3.8-.1 4.1-.1 8.1-.1 12.1zm83.6-5.6c-.6-.6-1-1.2-1.5-1.7-1.4-1.4-3.2-1.2-4.5.4-.5.7-.7 1.5-.7 2.3 0 3.3-.1 6.5-.1 9.8 0 2.4-.1 4.7-.1 7.1 0 2 1.5 3.4 3.4 3.4s3.3-1.4 3.3-3.4c.1-3 .2-5.9.1-8.9 0-1.8.7-3 2.1-3.9 1.2-.8 2.6-1.3 3.9-1.8 1.4-.6 2.1-1.7 1.9-3.1-.3-2.2-2.4-3.5-4.7-2.7-1.2.5-2.2 1.5-3.1 2.5zm82.6 9.2h.2c0-2.8 0-5.5 0-8.3 0-1.1-.3-2.1-1.1-2.8-1-.9-2.2-1-3.5-.5-1.4.6-2.1 1.7-2.1 3.2-.1 5.6-.1 11.2-.2 16.8 0 2.2 1.2 3.7 3.3 3.7s3.5-1.4 3.5-3.6c-.1-2.8-.1-5.7-.1-8.5zm-3.1-13.9c2.1 0 3.8-1.6 3.8-3.8 0-2.1-1.6-3.9-3.7-3.9-2.2 0-3.9 1.7-3.9 3.8-.1 2.2 1.5 3.9 3.8 3.9z"/><path d="m463.9 155.9c4.2-4.4 8-9 11.1-14.2.2-.3.4-.7.8-1v1 23.5c0 2.1-.9 3.2-3 3.2-6 .1-12 .1-18 0-2.1 0-3-1.1-3-3.2 0-2.3 0-4.6 0-7 0-.7-.1-1.1-.9-1-10.9 0-21.8 0-32.8 0-.8 0-1 .3-1 1v9.1c0 .9-.1 1.2-1.2 1.2-3.3 0-6.5.4-9.8.8-.6.1-.9-.1-1.2-.6-4.1-8.3-7.3-17-9.5-26-.2-.8 0-1 .7-1.1 6.8-.8 13.7-1.4 20.6-1.5h25.7 1.7c-2.1 5.1-5.3 8.9-10.8 10.4 2.2.4 5-.2 7.5-1.7 3.7-2.1 6.1-5.4 8.3-9 .7-1.2 1.4-2.5 2.2-3.9-.5 0-.8 0-1.1 0-12 0-23.9 0-35.9.1-6.3.1-12.6.6-18.9 1.5-.8.1-1 0-1.2-.8-1.2-6.5-1.9-13-2-19.7 0-1 .3-1.1 1.1-1.1h22.2c1 0 1.2-.3 1.2-1.3-.1-2.8 0-2.8-2.9-2.8-6.9 0-13.8 0-20.6 0-.8 0-1.1-.2-1.1-1 .2-6.4.9-12.8 2.1-19.2.1-.7.3-.9 1.1-.8 7.7 1 15.5 1.6 23.3 1.6 11.6 0 23.2-.1 34.8 0 3.8 0 7.5-.4 11.2-1.6 2.2-.8 4.4-1.2 6.9-1.9-.8 1.4-1.7 2.4-2.6 3.5-3.3 3.9-6.5 7.9-9.8 11.8-.7.9-.9 1.7-.7 2.8 1.1 5.6 2.1 11.3 3 17 .1.8.4 1.1 1.3 1.1 2.4 0 4.9.1 7.3 0 .5 0 1 .1 1.2-.6 1.9-5.4 4.2-10.6 5.1-16.3 1-5.9 1-11.7-1.8-17.2-.3-.5-.6-1-.9-1.7 5.4 3.4 8.9 7.9 9 14.4.1 6.7-1.4 13.1-3.4 19.4-3.6 11.3-9.1 21.7-15.3 31.7-.1.2-.2.4-.4.6-.1.1-.2.2-.3.3.5.5.6.4.7.2zm-8.5-15c0 2 1.5 3.5 3.5 3.5 1.9 0 3.5-1.6 3.5-3.5s-1.6-3.5-3.5-3.5-3.4 1.6-3.5 3.5z"/><path d="m371.8 42.2c2.2-1.5 4.4-2.8 6.6-4 11.6-6.3 24-9.9 37.2-10.2 20.3-.4 38.6 5.7 54.6 18.2 16.5 13 27 29.8 31.5 50.3 1.9 8.9 2.2 17.8 1.4 26.8-1.5 15.7-6.7 30.1-16.1 42.9-12.2 16.6-28.5 27.1-48.5 31.9-9.6 2.3-19.3 3-29.2 1.9-13.1-1.5-25.3-5.9-36.4-13-.2-.1-.4-.3-.6-.5 3.7-2.5 7.6-4.5 11.6-6.4.8-.4 1.7-.6 2.5-1.1 1.2-.7 1.9-.3 2.9.5 8.1 6.9 17.2 12.2 27.2 16.1.5.2 1 .3 1.5.3 22.6-.4 42.4-7.8 58.4-24.2 10.7-10.9 17.4-24 20.6-38.9 3.9-18 2.5-35.7-5.4-52.4-11.8-25-31.5-40.4-58.5-46.3-5.1-1.1-10.3-1.5-15.5-1.5-.6 0-1.2.2-1.7.4-9.9 4.1-18.8 9.8-26.9 16.8-.7.6-1.2.6-2 .3-4.9-2-9.5-4.4-13.9-7.2-.5-.2-.8-.4-1.3-.7z"/><path d="m345.6 116.3h11.4c.8 0 1.1.1 1.1 1 .3 9.2 2.1 18.1 5.5 26.7.4 1 .1 1.3-.8 1.6-6.5 2.2-12.9 4.8-19.1 7.9-.8.4-1.1.3-1.5-.5-5-10.1-8-20.7-8.8-32-.1-1.2-.1-2.5-.2-3.7-.1-.8.2-1 1-1z"/><path d="m345.6 112.2c-3.8 0-7.7 0-11.5 0-.8 0-1-.2-1-1 .4-12.4 3.4-24.2 8.9-35.4.3-.6.6-.8 1.3-.4 6.4 3.1 13 5.9 19.8 8.2.7.2.9.4.6 1.2-2.5 6.3-4.2 12.9-5 19.7-.3 2.3-.4 4.5-.6 6.8 0 .8-.3 1-1 1-3.9-.1-7.7-.1-11.5-.1z"/><path d="m384.6 53.6c-3.7 3.6-6.9 7.2-9.9 11.2-3.3 4.5-6.2 9.2-8.6 14.2-.4.8-.7 1.1-1.7.7-6.6-2.3-13-4.9-19.3-7.9-.8-.4-.8-.6-.4-1.3 5.9-10 13.5-18.4 22.7-25.4.4-.3.6-.6 1.1-.2 5.1 3.5 10.4 6.3 16.1 8.7z"/><path d="m384.4 175.2c0 .3-.3.3-.4.4-5.2 2.2-10.2 4.9-14.9 8.1-.6.4-.9 0-1.2-.3-7.6-5.7-14.2-12.5-19.6-20.4-1.1-1.6-2.1-3.4-3.2-5-.3-.5-.2-.7.3-1 6.4-3.1 13-5.8 19.7-8.1.8-.3.9.3 1.1.7 2.2 4.7 4.9 9.1 7.9 13.3 2.9 4.1 6.2 7.9 9.8 11.4.1.4.3.7.5.9z"/><path d="m375.2 116.3h12c.8 0 1.1.1 1.1 1 .1 6.8.8 13.5 2.1 20.2.1.7.1 1-.8 1.2-7.1 1.2-14.1 2.8-20.9 5-.7.2-.9 0-1.2-.6-3.2-8.3-5-16.9-5.4-25.8 0-.8.2-1 1-1z"/><path d="m375.2 112.2c-4 0-7.9 0-11.9 0-.9 0-1.2-.1-1.2-1.1.5-8.6 2.2-17 5.4-25.1.3-.7.6-.8 1.2-.6 6.9 2.1 13.9 3.8 21.1 5 .8.1.7.6.6 1.1-.6 3.3-1.1 6.6-1.4 10-.3 3.3-.6 6.5-.6 9.8 0 .8-.2 1-1 1-4.1-.1-8.2-.1-12.2-.1z"/><path d="m401.3 58.7c-3.6 7.3-6.4 14.7-8.5 22.4-.4 1.5-.8 3-1.1 4.5-.1.6-.3.8-1 .7-6.8-1.2-13.5-2.8-20.1-4.7-.7-.2-.9-.4-.5-1.2 4.5-9.3 10.6-17.4 18.1-24.5.6-.5 1-.7 1.8-.4 3.5 1.4 7.3 2.4 11.3 3.2z"/><path d="m391.2 142.6c.4 0 .3.6.4.9 1.2 4.8 2.6 9.5 4.3 14.2 1.4 3.9 3 7.8 4.9 11.5.4.8.4 1.1-.6 1.3-3.6.7-7.1 1.7-10.5 2.9-.7.3-1.2.1-1.7-.4-7.5-7.1-13.6-15.3-18.2-24.6-.2-.5-.5-.8.4-1.1 6.7-2 13.4-3.6 20.3-4.7z"/><path d="m417.2 74.7v12.9c0 .9-.2 1.1-1.1 1.1-6.7-.1-13.3-.6-19.9-1.5-.6-.1-.7-.2-.6-.8 2.2-9.1 5.4-17.9 9.5-26.2.2-.5.5-.7 1.1-.6 3.4.5 6.7.8 10.1.9.8 0 .9.4.9 1z"/><path d="m417.2 40.9v8.7c0 .9.2 1.1 1.1 1.2 22.7.9 40.4 10.7 52.7 29.9.6.9.9 1.1 1.9.5 3.8-2.4 9-1.7 11.8 1.5 1.6 1.7 1.6 3.8.2 5.4-.3.4-.7.6-1.2.6-3.2 0-6.5 0-9.7 0-.6 0-.9-.3-1.2-.8-2.2-3.2-4.3-6.5-6.8-9.4-9.6-11.1-21.7-17.9-36-20.8-5-1-10-1.1-15-1.4-2.2-.1-4.4-.4-6.6-.5-.6 0-.9-.1-.5-.8 2.7-4.9 5.7-9.6 9.3-14.1z"/><path d="m453.8 88.7c-.6 0-1.1 0-1.5 0-9.7 0-19.3 0-29 0-1 0-1.3-.1-1-1.2 1.9-5.7 4-11.2 8.4-15.5 2-2 4.3-3.3 7.2-3.2 2 .1 3.8.8 5.4 2.1 3.4 2.6 5.5 6.1 7.3 9.8 1.3 2.5 2.4 5.1 3.2 8z"/><path d="m468.6 99.3c3.5 0 6.2 2.7 6.2 6.1s-2.7 6.2-6.1 6.2-6.2-2.7-6.2-6.1 2.7-6.1 6.1-6.2z"/><path d="m412.8 39c-2.5 3.8-4.9 7.5-7.1 11.5-.7 1.3-1.4 2.5-2.1 3.8-.2.4-.4.7-.9.6-3.4-.7-6.8-1.5-10.3-2.7 2.7-2.3 5.3-4.3 8.1-6.2 3.5-2.5 7.2-4.7 11-6.6.3-.2.7-.5 1.3-.4z"/><path d="m412.7 189.6c-5.4-2.3-10.4-5.3-15.1-8.7-1.7-1.2-3.4-2.5-5.2-3.9 2.5-.9 4.8-1.5 7.2-2.1.9-.2 1.8-.3 2.7-.6.8-.2 1.2-.1 1.6.7 2.6 4.9 5.6 9.5 8.8 14 .1.2.2.3.3.5-.3 0-.3 0-.3.1z"/><path d="m417.2 188.2c-1.7-1.6-8.1-11.5-9.6-14.8 2-.5 4.1-.5 6.1-.7 1.1-.1 2.5-.6 3.3.1.7.6.2 2 .2 3.1v11.1z"/><path d="m466.4 114.1c2.2 0 3.9 1.7 3.9 3.8s-1.8 3.8-3.8 3.8c-2.1 0-3.9-1.8-3.9-3.9s1.6-3.7 3.8-3.7z"/><path d="m412.7 38.9c.1 0 .1-.1.2-.1.1.2 0 .2-.2.1.1.1 0 0 0 0z"/><path d="m412.8 189.5c.1 0 .2.1.1.2 0 0-.2 0-.2-.1s0-.1.1-.1z"/></g><path d="m88.3 63.3c.9 3.1 1.8 6.1 2.8 9.1 3.5 11.6 7 23.1 10.5 34.7.3 1.1.1 1.2-1 1.2-8.5 0-17 0-25.4 0-1 0-1.2-.1-.9-1.2 4.6-14.5 9.2-29 13.8-43.6 0 0 0 0 .2-.2z" fill="#003884"/><path d="m194 74.8c0-4.6 0-9.2 0-13.8 0-.8.2-1.1 1.1-1.1h17.9c7.7.1 14.1 6.5 14.5 14.6.4 7.3-5.5 14.1-12.9 14.9-3.9.4-7.7.1-11.6.2-2.6 0-5.2 0-7.8 0-.8 0-1.1-.2-1.1-1.1-.1-4.5-.1-9.1-.1-13.7z" fill="#003884"/><path d="m37.8 231.2c1.2 3.9 2.3 7.4 3.4 11 .2.5.2.8-.5.8-2.3 0-4.5 0-7 0 1.3-3.9 2.7-7.7 4.1-11.8z" fill="#eb681f"/><path d="m140.8 234.8c0-1.2 0-2.3 0-3.5 0-.6.1-1 .9-.9 1.4.1 2.8-.1 4.2.1 2.1.3 3.5 2.2 3.4 4.4-.1 2.1-1.8 4-3.8 4.1-1.3.1-2.6 0-4 0-.7 0-.8-.3-.8-.9 0-1.1 0-2.2.1-3.3-.1 0 0 0 0 0z" fill="#eb681f"/><path d="m384.2 243.4c0 1.6-.3 2.9-1.1 4.2-1.7 2.5-5.1 2.7-7 .3-1.8-2.2-1.7-6.5.2-8.6 2-2.3 5.4-2 7 .6.7 1.1.9 2.3.9 3.5z" fill="#eb681f"/><path d="m174.5 243.3c0 1.8-.3 3.2-1.2 4.4-1.9 2.6-5.5 2.6-7.2-.1-1.4-2.1-1.3-5.7.1-7.8 1.1-1.6 2.9-2.4 4.5-2 2 .5 3.4 2.1 3.7 4.5.1.4.1.9.1 1z" fill="#eb681f"/><path d="m487.9 243.7c0 1.8-.5 3.4-1.8 4.7-1.9 1.8-4.8 1.6-6.4-.5-1.7-2.2-1.7-6.1 0-8.3 1.9-2.6 5.6-2.4 7.2.4.8 1.1 1 2.3 1 3.7z" fill="#eb681f"/><path d="m312.8 241.4c-1.2 0-2.5 0-3.7 0-.7 0-.8-.2-.6-.8.6-2.3 2.4-3.7 4.6-3.7 2.1 0 3.5 1.4 4.1 3.6.2.6.1.9-.6.9-1.3 0-2.6 0-3.8 0z" fill="#eb681f"/><path d="m436.5 243.7c0 1.7-.4 3.3-1.6 4.6-1.9 2.2-5.1 2-6.8-.4-1.5-2.3-1.5-6 0-8.3 1.9-2.8 5.6-2.7 7.3.2.8 1.1 1.1 2.3 1.1 3.9z" fill="#eb681f"/><path d="m109.7 243.2c0 2.1-.4 3.7-1.5 5-1.9 2.3-5.1 2.2-6.8-.3-1.6-2.2-1.6-6 0-8.3 2-2.9 5.8-2.7 7.5.4.5 1.2.8 2.4.8 3.2z" fill="#eb681f"/></svg>