<?xml version="1.0" encoding="UTF-8" standalone="no"?>
<!-- Created with Inkscape (http://www.inkscape.org/) -->

<svg
   version="1.1"
   id="svg1"
   width="1089.0107"
   height="807.01599"
   viewBox="0 0 1089.0107 807.01599"
   sodipodi:docname="Logo_VNE_Belgium.ai"
   xmlns:inkscape="http://www.inkscape.org/namespaces/inkscape"
   xmlns:sodipodi="http://sodipodi.sourceforge.net/DTD/sodipodi-0.dtd"
   xmlns="http://www.w3.org/2000/svg"
   xmlns:svg="http://www.w3.org/2000/svg">
  <defs
     id="defs1">
    <clipPath
       clipPathUnits="userSpaceOnUse"
       id="clipPath45">
      <path
         d="M 0,605.262 H 816.758 V 0 H 0 Z"
         transform="translate(-403.69394,-561.89371)"
         id="path45" />
    </clipPath>
    <clipPath
       clipPathUnits="userSpaceOnUse"
       id="clipPath47">
      <path
         d="M 0,605.262 H 816.758 V 0 H 0 Z"
         transform="translate(-68.632477,-559.95501)"
         id="path47" />
    </clipPath>
    <clipPath
       clipPathUnits="userSpaceOnUse"
       id="clipPath49">
      <path
         d="M 0,605.262 H 816.758 V 0 H 0 Z"
         transform="translate(-595.65561,-356.93201)"
         id="path49" />
    </clipPath>
    <clipPath
       clipPathUnits="userSpaceOnUse"
       id="clipPath51">
      <path
         d="M 0,605.262 H 816.758 V 0 H 0 Z"
         transform="translate(-593.65574,-559.93191)"
         id="path51" />
    </clipPath>
    <clipPath
       clipPathUnits="userSpaceOnUse"
       id="clipPath53">
      <path
         d="M 0,605.262 H 816.758 V 0 H 0 Z"
         transform="translate(-702.85634,-456.91041)"
         id="path53" />
    </clipPath>
    <clipPath
       clipPathUnits="userSpaceOnUse"
       id="clipPath55">
      <path
         d="M 0,605.262 H 816.758 V 0 H 0 Z"
         transform="translate(-196.62943,-266.37201)"
         id="path55" />
    </clipPath>
    <clipPath
       clipPathUnits="userSpaceOnUse"
       id="clipPath57">
      <path
         d="M 0,605.262 H 816.758 V 0 H 0 Z"
         transform="translate(-222.82993,-221.69221)"
         id="path57" />
    </clipPath>
    <clipPath
       clipPathUnits="userSpaceOnUse"
       id="clipPath59">
      <path
         d="M 0,605.262 H 816.758 V 0 H 0 Z"
         transform="translate(-297.82371,-187.30251)"
         id="path59" />
    </clipPath>
    <clipPath
       clipPathUnits="userSpaceOnUse"
       id="clipPath61">
      <path
         d="M 0,605.262 H 816.758 V 0 H 0 Z"
         transform="translate(-380.00151,-213.08961)"
         id="path61" />
    </clipPath>
    <clipPath
       clipPathUnits="userSpaceOnUse"
       id="clipPath63">
      <path
         d="M 0,605.262 H 816.758 V 0 H 0 Z"
         transform="translate(2.5000001e-5)"
         id="path63" />
    </clipPath>
    <clipPath
       clipPathUnits="userSpaceOnUse"
       id="clipPath65">
      <path
         d="M 0,605.262 H 816.758 V 0 H 0 Z"
         transform="translate(-476.67824,-206.7967)"
         id="path65" />
    </clipPath>
    <clipPath
       clipPathUnits="userSpaceOnUse"
       id="clipPath67">
      <path
         d="M 0,605.262 H 816.758 V 0 H 0 Z"
         transform="translate(2.5000001e-5)"
         id="path67" />
    </clipPath>
    <clipPath
       clipPathUnits="userSpaceOnUse"
       id="clipPath69">
      <path
         d="M 0,605.262 H 816.758 V 0 H 0 Z"
         transform="translate(-538.06844,-197.2342)"
         id="path69" />
    </clipPath>
    <clipPath
       clipPathUnits="userSpaceOnUse"
       id="clipPath71">
      <path
         d="M 0,605.262 H 816.758 V 0 H 0 Z"
         transform="translate(-674.84182,-239.30841)"
         id="path71" />
    </clipPath>
    <clipPath
       clipPathUnits="userSpaceOnUse"
       id="clipPath73">
      <path
         d="M 0,605.262 H 816.758 V 0 H 0 Z"
         transform="translate(-410.77844,-97.7032)"
         id="path73" />
    </clipPath>
    <clipPath
       clipPathUnits="userSpaceOnUse"
       id="clipPath75">
      <path
         d="M 0,605.262 H 816.758 V 0 H 0 Z"
         transform="translate(-457.43294,-85.598702)"
         id="path75" />
    </clipPath>
    <clipPath
       clipPathUnits="userSpaceOnUse"
       id="clipPath77">
      <path
         d="M 0,605.262 H 816.758 V 0 H 0 Z"
         transform="translate(-476.17731,-103.09851)"
         id="path77" />
    </clipPath>
    <clipPath
       clipPathUnits="userSpaceOnUse"
       id="clipPath79">
      <path
         d="M 0,605.262 H 816.758 V 0 H 0 Z"
         transform="translate(-508.16774,-109.8085)"
         id="path79" />
    </clipPath>
    <clipPath
       clipPathUnits="userSpaceOnUse"
       id="clipPath81">
      <path
         d="M 0,605.262 H 816.758 V 0 H 0 Z"
         transform="translate(-515.60234,-97.7032)"
         id="path81" />
    </clipPath>
    <clipPath
       clipPathUnits="userSpaceOnUse"
       id="clipPath83">
      <path
         d="M 0,605.262 H 816.758 V 0 H 0 Z"
         transform="translate(-556.48131,-97.7032)"
         id="path83" />
    </clipPath>
    <clipPath
       clipPathUnits="userSpaceOnUse"
       id="clipPath85">
      <path
         d="M 0,605.262 H 816.758 V 0 H 0 Z"
         transform="translate(-587.64171,-109.7739)"
         id="path85" />
    </clipPath>
    <clipPath
       clipPathUnits="userSpaceOnUse"
       id="clipPath87">
      <path
         d="M 0,605.262 H 816.758 V 0 H 0 Z"
         transform="translate(-595.07601,-97.7032)"
         id="path87" />
    </clipPath>
    <clipPath
       clipPathUnits="userSpaceOnUse"
       id="clipPath89">
      <path
         d="M 0,605.262 H 816.758 V 0 H 0 Z"
         transform="translate(-622.74352,-103.27161)"
         id="path89" />
    </clipPath>
    <clipPath
       clipPathUnits="userSpaceOnUse"
       id="clipPath91">
      <path
         d="M 0,605.262 H 816.758 V 0 H 0 Z"
         transform="translate(-662.30759,-101.2654)"
         id="path91" />
    </clipPath>
    <clipPath
       clipPathUnits="userSpaceOnUse"
       id="clipPath93">
      <path
         d="M 0,605.262 H 816.758 V 0 H 0 Z"
         transform="translate(-695.50882,-109.7739)"
         id="path93" />
    </clipPath>
    <clipPath
       clipPathUnits="userSpaceOnUse"
       id="clipPath95">
      <path
         d="M 0,605.262 H 816.758 V 0 H 0 Z"
         transform="translate(-392.67073,-118.3258)"
         id="path95" />
    </clipPath>
    <clipPath
       clipPathUnits="userSpaceOnUse"
       id="clipPath97">
      <path
         d="M 0,605.262 H 816.758 V 0 H 0 Z"
         transform="translate(-363.18351,-131.1394)"
         id="path97" />
    </clipPath>
    <clipPath
       clipPathUnits="userSpaceOnUse"
       id="clipPath99">
      <path
         d="M 0,605.262 H 816.758 V 0 H 0 Z"
         transform="translate(-391.97548,-126.61911)"
         id="path99" />
    </clipPath>
    <clipPath
       clipPathUnits="userSpaceOnUse"
       id="clipPath101">
      <path
         d="M 0,605.262 H 816.758 V 0 H 0 Z"
         transform="translate(-363.18351,-139.5267)"
         id="path101" />
    </clipPath>
    <clipPath
       clipPathUnits="userSpaceOnUse"
       id="clipPath103">
      <path
         d="M 0,605.262 H 816.758 V 0 H 0 Z"
         transform="translate(-363.16978,-134.5767)"
         id="path103" />
    </clipPath>
    <clipPath
       clipPathUnits="userSpaceOnUse"
       id="clipPath105">
      <path
         d="M 0,605.262 H 816.758 V 0 H 0 Z"
         transform="translate(-363.32878,-131.1394)"
         id="path105" />
    </clipPath>
    <clipPath
       clipPathUnits="userSpaceOnUse"
       id="clipPath107">
      <path
         d="M 0,605.262 H 816.758 V 0 H 0 Z"
         transform="translate(-345.92263,-101.84541)"
         id="path107" />
    </clipPath>
    <clipPath
       clipPathUnits="userSpaceOnUse"
       id="clipPath109">
      <path
         d="M 0,605.262 H 816.758 V 0 H 0 Z"
         transform="translate(-366.51051,-101.84541)"
         id="path109" />
    </clipPath>
  </defs>
  <sodipodi:namedview
     id="namedview1"
     pagecolor="#ffffff"
     bordercolor="#000000"
     borderopacity="0.25"
     inkscape:showpageshadow="2"
     inkscape:pageopacity="0.0"
     inkscape:pagecheckerboard="0"
     inkscape:deskcolor="#d1d1d1">
    <inkscape:page
       x="0"
       y="0"
       inkscape:label="3"
       id="page43"
       width="1089.0107"
       height="807.01599"
       margin="78.678932 90.253334 57.402668 68.828796"
       bleed="0" />
  </sodipodi:namedview>
  <g
     id="layer-MC0"
     inkscape:groupmode="layer"
     inkscape:label="Calque 1"
     transform="translate(-2218.0213)">
    <path
       id="path44"
       d="m 0,0 c 50.191,4.022 96.709,-30.69 100.242,-82.16 3.515,-51.206 -2.707,-106.406 -0.05,-158.032 -2.912,-29.287 -49.263,-30.311 -52.027,1.955 -4.184,48.836 3.293,103.484 -0.069,152.931 -5.468,47.473 -75.576,46.622 -78.941,-1.849 -3.367,-48.498 3.864,-101.817 0.082,-150.082 -1.472,-18.789 -13.283,-26.467 -31.542,-24.471 -10.82,1.184 -20.108,10.475 -20.53,21.471 2.972,52.476 -3.832,109.086 -0.003,161.075 C -79.731,-36.981 -41.094,-3.293 0,0"
       style="fill:#000000;fill-opacity:1;fill-rule:nonzero;stroke:none"
       transform="matrix(1.3333333,0,0,-1.3333333,2756.2799,57.8244)"
       clip-path="url(#clipPath45)" />
    <path
       id="path46"
       d="m 0,0 c 12.08,2.019 21.241,0.075 29.285,-9.239 9.13,-10.572 18.832,-45.226 23.996,-60.004 14.836,-42.46 28.284,-85.444 43.087,-127.909 1.192,-2.328 3.474,-2.073 4.931,-0.141 19.217,51.338 34.211,104.594 52.692,156.302 4.749,13.289 10.975,39.313 27.77,41.23 24.538,2.8 37.328,-9.683 29.96,-33.96 l -74.988,-207.012 c -10.656,-26.997 -66.122,-26.422 -75.327,1.614 L -16.498,-28.023 C -18.928,-16.267 -12.609,-2.107 0,0"
       style="fill:#000000;fill-opacity:1;fill-rule:nonzero;stroke:none"
       transform="matrix(1.3333333,0,0,-1.3333333,2309.5313,60.409333)"
       clip-path="url(#clipPath47)" />
    <path
       id="path48"
       d="m 0,0 129.481,0.002 c 32.707,-6.235 31.511,-52.366 -1.849,-56.634 L 0.998,-56.481 C -31.352,-51.136 -32.269,-6.562 0,0"
       style="fill:#000000;fill-opacity:1;fill-rule:nonzero;stroke:none"
       transform="matrix(1.3333333,0,0,-1.3333333,3012.2288,331.10667)"
       clip-path="url(#clipPath49)" />
    <path
       id="path50"
       d="m 0,0 133.499,0.021 c 29.69,-6.456 28.691,-48.657 0.153,-55.673 L -2.023,-55.501 C -30.826,-47.407 -29.239,-6.034 0,0"
       style="fill:#000000;fill-opacity:1;fill-rule:nonzero;stroke:none"
       transform="matrix(1.3333333,0,0,-1.3333333,3009.5623,60.440133)"
       clip-path="url(#clipPath51)" />
    <path
       id="path52"
       d="m 0,0 -56.304,-0.009 c 0,-0.001 0,-0.003 0,-0.004 l -50.199,-0.008 c -29.238,-6.034 -30.825,-47.407 -2.023,-55.501 l 54.17,-0.06 v -0.03 L 0.153,-55.673 C 28.691,-48.657 29.69,-6.456 0,0"
       style="fill:#000000;fill-opacity:1;fill-rule:nonzero;stroke:none"
       transform="matrix(1.3333333,0,0,-1.3333333,3155.1631,197.80213)"
       clip-path="url(#clipPath53)" />
    <path
       id="path54"
       d="m 0,0 c -40.47,24.434 -79.779,-5.965 -83.411,-44.717 20.331,-7.856 38.724,11.22 55.582,11.22 18.844,0 32.245,-19.107 54.029,-11.175 C 24.697,-26.762 15.921,-9.607 0,0"
       style="fill:#2f6d32;fill-opacity:1;fill-rule:nonzero;stroke:none"
       transform="matrix(1.3333333,0,0,-1.3333333,2480.1939,451.85333)"
       clip-path="url(#clipPath55)" />
    <path
       id="path56"
       d="m 0,0 c -0.667,-1.874 -26.582,-31.793 -53.495,-31.793 -27.513,-0.001 -49.198,19.279 -56.122,31.702 -1.12,-12.062 1.211,-24.93 8.047,-37.206 18.458,-33.149 63.326,-36.967 87.974,-7.768 C -3.148,-32.693 1.344,-16.044 0,0"
       style="fill:#e53636;fill-opacity:1;fill-rule:nonzero;stroke:none"
       transform="matrix(1.3333333,0,0,-1.3333333,2515.1279,511.4264)"
       clip-path="url(#clipPath57)" />
    <path
       id="path58"
       d="m 0,0 c 9.809,0 15.546,5.243 15.546,13.572 0,8.76 -6.601,13.572 -16.718,13.572 H -20.79 V 0 Z m -1.295,39.358 c 7.402,0 12.831,4.566 12.831,11.413 0,6.293 -4.441,10.673 -12.091,10.673 H -20.79 V 39.358 Z m -34.363,34.301 h 35.72 c 15.176,0 26.465,-8.143 26.465,-21.407 0,-7.958 -4.133,-15.423 -13.325,-19.124 V 34.67 C 24.492,31.216 30.537,23.751 30.537,12.894 30.537,-1.789 20.111,-12.4 1.728,-12.4 h -37.386 z"
       style="fill:#000000;fill-opacity:1;fill-rule:nonzero;stroke:none"
       transform="matrix(1.3333333,0,0,-1.3333333,2615.1196,557.27933)"
       clip-path="url(#clipPath59)" />
    <path
       id="path60"
       d="M 0,0 C -0.555,8.267 -6.107,14.065 -14.25,14.065 -22.826,14.065 -28.069,8.02 -28.81,0 Z m -43.616,-6.725 c 0,18.877 11.043,32.944 29.427,32.944 17.459,0 28.933,-12.462 28.933,-32.08 V -10.55 H -28.81 c 0.371,-9.747 5.984,-17.088 15.608,-17.088 6.293,0 12.153,2.776 13.572,8.328 H 14.004 C 11.66,-31.586 0.679,-39.791 -13.695,-39.791 c -18.2,0 -29.921,14.004 -29.921,33.066"
       style="fill:#000000;fill-opacity:1;fill-rule:nonzero;stroke:none"
       transform="matrix(1.3333333,0,0,-1.3333333,2724.69,522.89653)"
       clip-path="url(#clipPath61)" />
    <path
       id="path62"
       d="m 406.595,261.579 h 14.559 v -86.677 h -14.559 z"
       style="fill:#000000;fill-opacity:1;fill-rule:nonzero;stroke:none"
       transform="matrix(1.3333333,0,0,-1.3333333,2218.0213,807.016)"
       clip-path="url(#clipPath63)" />
    <path
       id="path64"
       d="m 0,0 v 0.864 c 0,10.611 -4.75,19.37 -14.065,19.37 -9.624,0 -14.251,-9.13 -14.251,-20.234 0,-10.98 4.689,-19.926 14.189,-19.926 C -4.565,-19.926 0,-10.61 0,0 m -41.086,-36.83 h 14.436 c 0.74,-5.182 5.983,-8.267 13.078,-8.267 9.131,0 13.572,5.183 13.572,14.067 v 9.685 l 0.864,-0.124 c -3.208,-7.218 -9.932,-10.24 -17.767,-10.24 -15.978,0 -26.158,12.77 -26.158,31.524 0,19.865 11.475,32.697 26.405,32.697 9.932,0 15.731,-5.553 17.952,-12.524 H 0.494 V 30.907 H 14.498 V -30.66 c 0,-16.966 -10.796,-26.528 -28.317,-26.528 -15.608,0 -25.663,7.65 -27.267,20.358"
       style="fill:#000000;fill-opacity:1;fill-rule:nonzero;stroke:none"
       transform="matrix(1.3333333,0,0,-1.3333333,2853.5923,531.28707)"
       clip-path="url(#clipPath65)" />
    <path
       id="path66"
       d="m 507.467,237.704 h 14.559 v -62.802 h -14.559 z m -0.123,23.258 h 14.807 v -14.621 h -14.807 z"
       style="fill:#000000;fill-opacity:1;fill-rule:nonzero;stroke:none"
       transform="matrix(1.3333333,0,0,-1.3333333,2218.0213,807.016)"
       clip-path="url(#clipPath67)" />
    <path
       id="path68"
       d="M 0,0 V 40.47 H 14.559 V 3.146 c 0,-9.994 4.442,-14.805 11.474,-14.805 7.404,0 12.215,5.676 12.215,15.546 V 40.47 H 52.746 V -22.332 H 38.742 v 11.104 l 0.616,-0.74 C 36.521,-19.371 29.241,-23.936 21.222,-23.936 8.328,-23.936 0,-15.36 0,0"
       style="fill:#000000;fill-opacity:1;fill-rule:nonzero;stroke:none"
       transform="matrix(1.3333333,0,0,-1.3333333,2935.4459,544.03707)"
       clip-path="url(#clipPath69)" />
    <path
       id="path70"
       d="M 0,0 C 13.079,0 20.667,-8.822 20.667,-22.147 V -64.406 H 6.17 v 37.632 c 0,9.808 -3.702,14.497 -10.858,14.497 -6.169,0 -11.166,-4.626 -11.598,-14.559 l -2.961,14.806 C -15.484,-4.504 -8.39,0 0,0 m -16.286,-64.406 h -14.497 v 37.323 c 0,10.056 -3.702,14.806 -10.796,14.806 -7.095,0 -11.66,-5.799 -11.66,-15.608 v -36.521 h -14.559 v 62.802 h 14.004 v -11.351 l -0.741,0.986 C -51.08,-4.442 -44.355,0 -36.953,0 c 12.4,0 20.667,-7.773 20.667,-24.184 z"
       style="fill:#000000;fill-opacity:1;fill-rule:nonzero;stroke:none"
       transform="matrix(1.3333333,0,0,-1.3333333,3117.8104,487.93813)"
       clip-path="url(#clipPath71)" />
    <text
       id="text71"
       xml:space="preserve"
       transform="matrix(1.3333333,0,0,1.3333333,2561.8299,693.016)"><tspan
         id="tspan71"
         style="font-variant:normal;font-weight:600;font-stretch:normal;font-size:45.7311px;font-family:Montserrat-SemiBold;writing-mode:lr-tb;fill:#000000;fill-opacity:1;fill-rule:nonzero;stroke:none"
         x="0"
         y="0">By</tspan></text>
    <path
       id="path72"
       d="m 0,0 c 0,-4.288 3.493,-7.781 7.782,-7.781 h 12.104 v -4.323 H 7.782 c -6.675,0 -12.105,5.429 -12.105,12.104 0,6.675 5.43,12.105 12.105,12.105 H 19.886 V 7.782 H 7.782 C 3.493,7.782 0,4.289 0,0"
       style="fill:#205928;fill-opacity:1;fill-rule:nonzero;stroke:none"
       transform="matrix(1.3333333,0,0,-1.3333333,2765.7259,676.74507)"
       clip-path="url(#clipPath73)" />
    <path
       id="path74"
       d="M 0,0 H -4.842 L -7.055,4.323 -12.347,14.699 -17.638,4.323 -19.852,0 h -4.842 L -22.48,4.323 -12.347,24.21 -2.213,4.323 Z"
       style="fill:#205928;fill-opacity:1;fill-rule:nonzero;stroke:none"
       transform="matrix(1.3333333,0,0,-1.3333333,2827.9319,692.8844)"
       clip-path="url(#clipPath75)" />
    <path
       id="path76"
       d="m 0,0 v 0.138 c 0,1.211 -1.003,2.214 -2.213,2.214 h -9.822 c -1.211,0 -2.214,-1.003 -2.214,-2.214 V 0 c 0,-1.21 1.003,-2.213 2.214,-2.213 h 8.715 c 2.248,0 4.254,-0.968 5.637,-2.49 0.104,-0.104 0.173,-0.208 0.277,-0.312 1.072,-1.314 1.729,-3.009 1.729,-4.842 0,-4.219 -3.424,-7.643 -7.643,-7.643 h -7.574 c -4.219,0 -7.644,3.424 -7.644,7.643 h 4.324 c 0,-1.833 1.487,-3.32 3.32,-3.32 h 7.574 c 1.833,0 3.355,1.487 3.355,3.32 0,1.833 -1.522,3.321 -3.355,3.321 h -8.715 c -1.764,0 -3.355,0.691 -4.531,1.833 -0.311,0.311 -0.588,0.657 -0.83,1.037 -0.727,1.038 -1.142,2.318 -1.142,3.701 v 0.138 c 0,3.597 2.906,6.537 6.503,6.537 h 9.822 c 3.596,0 6.536,-2.94 6.536,-6.537 V 0.035 Z"
       style="fill:#205928;fill-opacity:1;fill-rule:nonzero;stroke:none"
       transform="matrix(1.3333333,0,0,-1.3333333,2852.9244,669.55133)"
       clip-path="url(#clipPath77)" />
    <path
       id="path78"
       d="m 0,0 v -24.21 h -4.323 v 11.102 H -19.886 V -24.21 H -24.21 V 0 h 4.324 V -8.785 H -4.323 V 0 Z"
       style="fill:#205928;fill-opacity:1;fill-rule:nonzero;stroke:none"
       transform="matrix(1.3333333,0,0,-1.3333333,2895.5783,660.60467)"
       clip-path="url(#clipPath79)" />
    <path
       id="path80"
       d="m 0,0 c 0,-4.288 3.493,-7.781 7.782,-7.781 h 12.104 v -4.323 H 7.782 c -6.675,0 -12.105,5.429 -12.105,12.104 0,6.675 5.43,12.105 12.105,12.105 H 19.886 V 7.782 H 7.782 C 3.493,7.782 0,4.289 0,0"
       style="fill:#000000;fill-opacity:1;fill-rule:nonzero;stroke:none"
       transform="matrix(1.3333333,0,0,-1.3333333,2905.4911,676.74507)"
       clip-path="url(#clipPath81)" />
    <path
       id="path82"
       d="m 0,0 c 0,4.289 -3.493,7.782 -7.781,7.782 -4.289,0 -7.782,-3.493 -7.782,-7.782 0,-4.288 3.493,-7.781 7.782,-7.781 C -3.493,-7.781 0,-4.288 0,0 m 4.323,0 c 0,-6.675 -5.43,-12.104 -12.104,-12.104 -6.676,0 -12.105,5.429 -12.105,12.104 0,6.675 5.429,12.105 12.105,12.105 6.674,0 12.104,-5.43 12.104,-12.105"
       style="fill:#000000;fill-opacity:1;fill-rule:nonzero;stroke:none"
       transform="matrix(1.3333333,0,0,-1.3333333,2959.9964,676.74507)"
       clip-path="url(#clipPath83)" />
    <path
       id="path84"
       d="m 0,0 v -24.21 l -4.323,3.32 -15.564,12.002 V -24.21 h -4.323 v 24.141 l 4.323,-3.321 15.564,-12.001 V 0.035 Z"
       style="fill:#000000;fill-opacity:1;fill-rule:nonzero;stroke:none"
       transform="matrix(1.3333333,0,0,-1.3333333,3001.5436,660.6508)"
       clip-path="url(#clipPath85)" />
    <path
       id="path86"
       d="m 0,0 c 0,-4.288 3.493,-7.781 7.782,-7.781 h 12.105 v -4.323 H 7.782 c -6.675,0 -12.105,5.429 -12.105,12.104 0,6.675 5.43,12.105 12.105,12.105 H 19.887 V 7.782 H 7.782 C 3.493,7.782 0,4.289 0,0"
       style="fill:#000000;fill-opacity:1;fill-rule:nonzero;stroke:none"
       transform="matrix(1.3333333,0,0,-1.3333333,3011.456,676.74507)"
       clip-path="url(#clipPath87)" />
    <path
       id="path88"
       d="M 0,0 V -2.248 H 15.563 V -6.571 H 0 v -4.565 c 0,-1.211 1.003,-2.214 2.213,-2.214 h 17.673 v -4.323 H 2.213 c -3.597,0 -6.501,2.94 -6.501,6.537 V 0 c 0,3.597 2.904,6.537 6.501,6.537 H 19.886 V 2.213 H 2.213 C 1.003,2.213 0,1.211 0,0"
       style="fill:#000000;fill-opacity:1;fill-rule:nonzero;stroke:none"
       transform="matrix(1.3333333,0,0,-1.3333333,3048.346,669.32053)"
       clip-path="url(#clipPath89)" />
    <path
       id="path90"
       d="M 0,0 C 0.796,0.346 1.315,1.142 1.315,2.006 1.315,2.802 0.899,3.355 0.658,3.597 0.381,3.874 -0.138,4.22 -0.899,4.22 h -10.963 v -4.462 h 10.963 c 0.311,0 0.623,0.069 0.899,0.207 z M 3.701,6.606 C 4.877,5.395 5.603,3.77 5.603,1.972 5.603,-0.657 4.047,-2.939 1.798,-3.977 1.211,-4.254 0.589,-4.427 -0.068,-4.496 H -0.276 V -4.53 h -11.586 v -11.137 h -4.323 v 24.21 h 15.252 c 1.798,0 3.424,-0.726 4.599,-1.902 z"
       style="fill:#000000;fill-opacity:1;fill-rule:nonzero;stroke:none"
       transform="matrix(1.3333333,0,0,-1.3333333,3101.0981,671.99547)"
       clip-path="url(#clipPath91)" />
    <path
       id="path92"
       d="M 0,0 V -4.323 H -9.926 V -24.21 h -4.323 v 19.887 h -9.926 V 0 Z"
       style="fill:#000000;fill-opacity:1;fill-rule:nonzero;stroke:none"
       transform="matrix(1.3333333,0,0,-1.3333333,3145.3664,660.6508)"
       clip-path="url(#clipPath93)" />
    <path
       id="path94"
       d="m 0,0 -6.096,-39.174 -23.391,-14.4 -0.014,-0.007 -23.405,14.407 -6.097,39.174 -4.883,10.529 34.385,5.722 0.014,-0.004 34.371,-5.718 z m -29.487,21.201 -0.014,0.003 -41.518,-6.909 7.297,-15.724 6.337,-40.721 27.884,-17.167 0.014,0.007 27.869,17.16 6.337,40.721 7.298,15.724 z"
       style="fill:#353435;fill-opacity:1;fill-rule:nonzero;stroke:none"
       transform="matrix(1.3333333,0,0,-1.3333333,2741.5823,649.24827)"
       clip-path="url(#clipPath95)" />
    <path
       id="path96"
       d="m 0,0 -0.014,0.003 -28.803,-4.527 2.837,-8.118 5.796,-37.281 20.17,-12.419 0.014,0.007 20.156,12.412 5.831,37.497 2.805,7.906 z"
       style="fill:#be1f3a;fill-opacity:1;fill-rule:nonzero;stroke:none"
       transform="matrix(1.3333333,0,0,-1.3333333,2702.266,632.16347)"
       clip-path="url(#clipPath97)" />
    <path
       id="path98"
       d="M 0,0 -2.805,-7.906 -8.636,-45.403 -28.792,-57.814 V 4.52 Z"
       style="fill:#487539;fill-opacity:1;fill-rule:nonzero;stroke:none"
       transform="matrix(1.3333333,0,0,-1.3333333,2740.6553,638.19053)"
       clip-path="url(#clipPath99)" />
    <path
       id="path100"
       d="M 0,0 V -4.953 L 34.371,-10.672 29.487,-21.201 23.391,-60.375 0,-74.775 v -5.736 l 27.87,17.16 6.337,40.721 7.297,15.724 z"
       style="fill:#585858;fill-opacity:1;fill-rule:nonzero;stroke:none"
       transform="matrix(1.3333333,0,0,-1.3333333,2702.266,620.9804)"
       clip-path="url(#clipPath101)" />
    <path
       id="path102"
       d="m 0,0 -34.385,-5.722 4.883,-10.529 6.097,-39.174 L 0,-69.831 l 0.014,0.006 v -5.736 L 0,-75.567 -27.884,-58.401 -34.221,-17.68 -41.518,-1.956 0,4.954 0.014,4.95 v -4.953 z"
       style="fill:#353535;fill-opacity:1;fill-rule:nonzero;stroke:none"
       transform="matrix(1.3333333,0,0,-1.3333333,2702.2477,627.5804)"
       clip-path="url(#clipPath103)" />
    <path
       id="path104"
       d="m 0,0 v -62.335 l -0.087,-0.007 -20.206,12.419 -5.814,37.281 -2.846,8.118 28.871,4.527 z"
       style="fill:#205928;fill-opacity:1;fill-rule:nonzero;stroke:none"
       transform="matrix(1.3333333,0,0,-1.3333333,2702.4597,632.16347)"
       clip-path="url(#clipPath105)" />
    <path
       id="path106"
       d="m 0,0 c 0,-5.665 2.787,-10.28 6.209,-10.28 h 9.658 v -5.71 H 6.209 c -5.326,0 -9.658,7.173 -9.658,15.99 0,8.818 4.332,15.99 9.658,15.99 h 9.658 V 10.279 H 6.209 C 2.787,10.279 0,5.665 0,0"
       style="fill:#ffffff;fill-opacity:1;fill-rule:nonzero;stroke:none"
       transform="matrix(1.3333333,0,0,-1.3333333,2679.2515,671.22213)"
       clip-path="url(#clipPath107)" />
    <path
       id="path108"
       d="m 0,0 c 0,-5.665 2.787,-10.28 6.209,-10.28 h 9.658 v -5.71 H 6.209 c -5.326,0 -9.658,7.173 -9.658,15.99 0,8.818 4.332,15.99 9.658,15.99 h 9.658 V 10.279 H 6.209 C 2.787,10.279 0,5.665 0,0"
       style="fill:#ffffff;fill-opacity:1;fill-rule:nonzero;stroke:none"
       transform="matrix(1.3333333,0,0,-1.3333333,2706.702,671.22213)"
       clip-path="url(#clipPath109)" />
  </g>
</svg>
